<mxfile host="Electron" agent="Mozilla/5.0 (X11; Linux x86_64) AppleWebKit/537.36 (KHTML, like Gecko) draw.io/26.0.16 Chrome/132.0.6834.210 Electron/34.5.0 Safari/537.36" version="26.0.16">
  <diagram name="Page-1" id="9YU3hWDcVNOE4jj2xl2_">
    <mxGraphModel dx="4930" dy="3594" grid="1" gridSize="10" guides="1" tooltips="1" connect="1" arrows="1" fold="1" page="1" pageScale="1" pageWidth="850" pageHeight="1100" math="0" shadow="0">
      <root>
        <mxCell id="0" />
        <mxCell id="1" parent="0" />
        <mxCell id="5_L3FHl470YcaegGqM6t-72" style="edgeStyle=orthogonalEdgeStyle;rounded=0;orthogonalLoop=1;jettySize=auto;html=1;endArrow=none;startFill=0;" edge="1" parent="1" source="5_L3FHl470YcaegGqM6t-59" target="5_L3FHl470YcaegGqM6t-69">
          <mxGeometry relative="1" as="geometry">
            <Array as="points">
              <mxPoint x="2500" y="230" />
              <mxPoint x="2500" y="279" />
            </Array>
          </mxGeometry>
        </mxCell>
        <mxCell id="5_L3FHl470YcaegGqM6t-59" value="" style="rounded=0;whiteSpace=wrap;html=1;fillColor=#fff2cc;strokeColor=#d6b656;" vertex="1" parent="1">
          <mxGeometry x="2520" y="180" width="210" height="360" as="geometry" />
        </mxCell>
        <mxCell id="5_L3FHl470YcaegGqM6t-74" style="edgeStyle=orthogonalEdgeStyle;rounded=0;orthogonalLoop=1;jettySize=auto;html=1;endArrow=none;startFill=0;" edge="1" parent="1" source="5_L3FHl470YcaegGqM6t-33" target="5_L3FHl470YcaegGqM6t-69">
          <mxGeometry relative="1" as="geometry">
            <Array as="points">
              <mxPoint x="2446" y="380" />
            </Array>
          </mxGeometry>
        </mxCell>
        <mxCell id="5_L3FHl470YcaegGqM6t-33" value="" style="rounded=0;whiteSpace=wrap;html=1;fillColor=#ffe6cc;strokeColor=#d79b00;" vertex="1" parent="1">
          <mxGeometry x="2160" y="300" width="210" height="160" as="geometry" />
        </mxCell>
        <mxCell id="sNHot06Kzyu65LDgnPcm-5" style="edgeStyle=orthogonalEdgeStyle;rounded=0;orthogonalLoop=1;jettySize=auto;html=1;" parent="1" source="sNHot06Kzyu65LDgnPcm-2" target="sNHot06Kzyu65LDgnPcm-3" edge="1">
          <mxGeometry relative="1" as="geometry" />
        </mxCell>
        <mxCell id="sNHot06Kzyu65LDgnPcm-6" style="edgeStyle=orthogonalEdgeStyle;rounded=0;orthogonalLoop=1;jettySize=auto;html=1;entryX=0;entryY=0.5;entryDx=0;entryDy=0;" parent="1" source="sNHot06Kzyu65LDgnPcm-2" target="sNHot06Kzyu65LDgnPcm-4" edge="1">
          <mxGeometry relative="1" as="geometry" />
        </mxCell>
        <mxCell id="sNHot06Kzyu65LDgnPcm-146" style="edgeStyle=orthogonalEdgeStyle;rounded=0;orthogonalLoop=1;jettySize=auto;html=1;entryX=1;entryY=0.5;entryDx=0;entryDy=0;" parent="1" source="sNHot06Kzyu65LDgnPcm-2" target="sNHot06Kzyu65LDgnPcm-144" edge="1">
          <mxGeometry relative="1" as="geometry">
            <Array as="points">
              <mxPoint x="80" y="470" />
              <mxPoint x="180" y="470" />
              <mxPoint x="180" y="660" />
            </Array>
          </mxGeometry>
        </mxCell>
        <mxCell id="sNHot06Kzyu65LDgnPcm-147" style="edgeStyle=orthogonalEdgeStyle;rounded=0;orthogonalLoop=1;jettySize=auto;html=1;entryX=1;entryY=0.5;entryDx=0;entryDy=0;" parent="1" source="sNHot06Kzyu65LDgnPcm-2" target="sNHot06Kzyu65LDgnPcm-145" edge="1">
          <mxGeometry relative="1" as="geometry">
            <Array as="points">
              <mxPoint x="80" y="470" />
              <mxPoint x="180" y="470" />
              <mxPoint x="180" y="780" />
            </Array>
          </mxGeometry>
        </mxCell>
        <mxCell id="sNHot06Kzyu65LDgnPcm-2" value="Image#n" style="whiteSpace=wrap;html=1;aspect=fixed;" parent="1" vertex="1">
          <mxGeometry x="40" y="240" width="80" height="80" as="geometry" />
        </mxCell>
        <mxCell id="sNHot06Kzyu65LDgnPcm-41" style="edgeStyle=orthogonalEdgeStyle;rounded=0;orthogonalLoop=1;jettySize=auto;html=1;entryX=0;entryY=0.5;entryDx=0;entryDy=0;" parent="1" source="sNHot06Kzyu65LDgnPcm-3" target="sNHot06Kzyu65LDgnPcm-33" edge="1">
          <mxGeometry relative="1" as="geometry" />
        </mxCell>
        <mxCell id="sNHot06Kzyu65LDgnPcm-3" value="Cross correlation#1" style="rounded=1;whiteSpace=wrap;html=1;" parent="1" vertex="1">
          <mxGeometry x="200" y="180" width="120" height="60" as="geometry" />
        </mxCell>
        <mxCell id="sNHot06Kzyu65LDgnPcm-43" style="edgeStyle=orthogonalEdgeStyle;rounded=0;orthogonalLoop=1;jettySize=auto;html=1;" parent="1" source="sNHot06Kzyu65LDgnPcm-4" target="sNHot06Kzyu65LDgnPcm-42" edge="1">
          <mxGeometry relative="1" as="geometry" />
        </mxCell>
        <mxCell id="sNHot06Kzyu65LDgnPcm-4" value="Cross correlation#2" style="rounded=1;whiteSpace=wrap;html=1;" parent="1" vertex="1">
          <mxGeometry x="200" y="320" width="120" height="60" as="geometry" />
        </mxCell>
        <mxCell id="sNHot06Kzyu65LDgnPcm-12" style="edgeStyle=orthogonalEdgeStyle;rounded=0;orthogonalLoop=1;jettySize=auto;html=1;entryX=0;entryY=0.5;entryDx=0;entryDy=0;" parent="1" source="sNHot06Kzyu65LDgnPcm-10" target="sNHot06Kzyu65LDgnPcm-11" edge="1">
          <mxGeometry relative="1" as="geometry" />
        </mxCell>
        <mxCell id="sNHot06Kzyu65LDgnPcm-10" value="Filters" style="shape=cube;whiteSpace=wrap;html=1;boundedLbl=1;backgroundOutline=1;darkOpacity=0.05;darkOpacity2=0.1;" parent="1" vertex="1">
          <mxGeometry x="-260" y="70" width="80" height="80" as="geometry" />
        </mxCell>
        <mxCell id="sNHot06Kzyu65LDgnPcm-15" style="edgeStyle=orthogonalEdgeStyle;rounded=0;orthogonalLoop=1;jettySize=auto;html=1;entryX=0;entryY=0.5;entryDx=0;entryDy=0;" parent="1" source="sNHot06Kzyu65LDgnPcm-11" target="sNHot06Kzyu65LDgnPcm-13" edge="1">
          <mxGeometry relative="1" as="geometry" />
        </mxCell>
        <mxCell id="sNHot06Kzyu65LDgnPcm-16" style="edgeStyle=orthogonalEdgeStyle;rounded=0;orthogonalLoop=1;jettySize=auto;html=1;entryX=0;entryY=0.5;entryDx=0;entryDy=0;" parent="1" source="sNHot06Kzyu65LDgnPcm-11" target="sNHot06Kzyu65LDgnPcm-14" edge="1">
          <mxGeometry relative="1" as="geometry" />
        </mxCell>
        <mxCell id="sNHot06Kzyu65LDgnPcm-11" value="partition" style="rounded=1;whiteSpace=wrap;html=1;" parent="1" vertex="1">
          <mxGeometry x="-130" y="80" width="120" height="60" as="geometry" />
        </mxCell>
        <mxCell id="sNHot06Kzyu65LDgnPcm-17" style="edgeStyle=orthogonalEdgeStyle;rounded=0;orthogonalLoop=1;jettySize=auto;html=1;entryX=0;entryY=0.25;entryDx=0;entryDy=0;" parent="1" source="sNHot06Kzyu65LDgnPcm-13" target="sNHot06Kzyu65LDgnPcm-3" edge="1">
          <mxGeometry relative="1" as="geometry">
            <Array as="points">
              <mxPoint x="170" y="60" />
              <mxPoint x="170" y="195" />
            </Array>
          </mxGeometry>
        </mxCell>
        <mxCell id="sNHot06Kzyu65LDgnPcm-160" style="edgeStyle=orthogonalEdgeStyle;rounded=0;orthogonalLoop=1;jettySize=auto;html=1;entryX=1;entryY=0.5;entryDx=0;entryDy=0;" parent="1" source="sNHot06Kzyu65LDgnPcm-13" target="sNHot06Kzyu65LDgnPcm-155" edge="1">
          <mxGeometry relative="1" as="geometry">
            <Array as="points">
              <mxPoint x="80" y="110" />
              <mxPoint x="30" y="110" />
              <mxPoint x="30" y="910" />
            </Array>
          </mxGeometry>
        </mxCell>
        <mxCell id="sNHot06Kzyu65LDgnPcm-13" value="Filters#1" style="whiteSpace=wrap;html=1;aspect=fixed;" parent="1" vertex="1">
          <mxGeometry x="40" y="20" width="80" height="80" as="geometry" />
        </mxCell>
        <mxCell id="sNHot06Kzyu65LDgnPcm-18" style="edgeStyle=orthogonalEdgeStyle;rounded=0;orthogonalLoop=1;jettySize=auto;html=1;entryX=0;entryY=0.25;entryDx=0;entryDy=0;" parent="1" source="sNHot06Kzyu65LDgnPcm-14" target="sNHot06Kzyu65LDgnPcm-4" edge="1">
          <mxGeometry relative="1" as="geometry">
            <Array as="points">
              <mxPoint x="150" y="160" />
              <mxPoint x="150" y="335" />
            </Array>
          </mxGeometry>
        </mxCell>
        <mxCell id="sNHot06Kzyu65LDgnPcm-161" style="edgeStyle=orthogonalEdgeStyle;rounded=0;orthogonalLoop=1;jettySize=auto;html=1;entryX=1;entryY=0.5;entryDx=0;entryDy=0;" parent="1" source="sNHot06Kzyu65LDgnPcm-14" target="sNHot06Kzyu65LDgnPcm-156" edge="1">
          <mxGeometry relative="1" as="geometry">
            <Array as="points">
              <mxPoint x="80" y="220" />
              <mxPoint x="20" y="220" />
              <mxPoint x="20" y="1000" />
            </Array>
          </mxGeometry>
        </mxCell>
        <mxCell id="sNHot06Kzyu65LDgnPcm-14" value="Filters#2" style="whiteSpace=wrap;html=1;aspect=fixed;" parent="1" vertex="1">
          <mxGeometry x="40" y="120" width="80" height="80" as="geometry" />
        </mxCell>
        <mxCell id="sNHot06Kzyu65LDgnPcm-26" value="" style="endArrow=none;dashed=1;html=1;dashPattern=1 3;strokeWidth=2;rounded=0;" parent="1" edge="1">
          <mxGeometry width="50" height="50" relative="1" as="geometry">
            <mxPoint x="470" y="-30" as="sourcePoint" />
            <mxPoint x="470" y="440" as="targetPoint" />
          </mxGeometry>
        </mxCell>
        <mxCell id="sNHot06Kzyu65LDgnPcm-27" value="&lt;font style=&quot;font-size: 35px;&quot;&gt;conv forward&lt;/font&gt;" style="text;html=1;align=center;verticalAlign=middle;whiteSpace=wrap;rounded=0;" parent="1" vertex="1">
          <mxGeometry x="200" y="-50" width="290" height="120" as="geometry" />
        </mxCell>
        <mxCell id="sNHot06Kzyu65LDgnPcm-28" value="&lt;font style=&quot;font-size: 35px;&quot;&gt;pool forward&lt;/font&gt;" style="text;html=1;align=center;verticalAlign=middle;whiteSpace=wrap;rounded=0;" parent="1" vertex="1">
          <mxGeometry x="470" y="-50" width="290" height="120" as="geometry" />
        </mxCell>
        <mxCell id="sNHot06Kzyu65LDgnPcm-46" style="edgeStyle=orthogonalEdgeStyle;rounded=0;orthogonalLoop=1;jettySize=auto;html=1;" parent="1" source="sNHot06Kzyu65LDgnPcm-33" target="sNHot06Kzyu65LDgnPcm-44" edge="1">
          <mxGeometry relative="1" as="geometry" />
        </mxCell>
        <mxCell id="sNHot06Kzyu65LDgnPcm-33" value="relu#1" style="rounded=1;whiteSpace=wrap;html=1;" parent="1" vertex="1">
          <mxGeometry x="360" y="180" width="60" height="60" as="geometry" />
        </mxCell>
        <mxCell id="sNHot06Kzyu65LDgnPcm-47" style="edgeStyle=orthogonalEdgeStyle;rounded=0;orthogonalLoop=1;jettySize=auto;html=1;entryX=0;entryY=0.5;entryDx=0;entryDy=0;" parent="1" source="sNHot06Kzyu65LDgnPcm-42" target="sNHot06Kzyu65LDgnPcm-45" edge="1">
          <mxGeometry relative="1" as="geometry" />
        </mxCell>
        <mxCell id="sNHot06Kzyu65LDgnPcm-42" value="relu#2" style="rounded=1;whiteSpace=wrap;html=1;" parent="1" vertex="1">
          <mxGeometry x="360" y="320" width="60" height="60" as="geometry" />
        </mxCell>
        <mxCell id="sNHot06Kzyu65LDgnPcm-50" style="edgeStyle=orthogonalEdgeStyle;rounded=0;orthogonalLoop=1;jettySize=auto;html=1;entryX=0;entryY=0.5;entryDx=0;entryDy=0;" parent="1" source="sNHot06Kzyu65LDgnPcm-44" target="sNHot06Kzyu65LDgnPcm-48" edge="1">
          <mxGeometry relative="1" as="geometry" />
        </mxCell>
        <mxCell id="sNHot06Kzyu65LDgnPcm-51" style="edgeStyle=orthogonalEdgeStyle;rounded=0;orthogonalLoop=1;jettySize=auto;html=1;entryX=0;entryY=0.5;entryDx=0;entryDy=0;" parent="1" source="sNHot06Kzyu65LDgnPcm-44" target="sNHot06Kzyu65LDgnPcm-49" edge="1">
          <mxGeometry relative="1" as="geometry" />
        </mxCell>
        <mxCell id="sNHot06Kzyu65LDgnPcm-44" value="Max pooling#1" style="rounded=1;whiteSpace=wrap;html=1;" parent="1" vertex="1">
          <mxGeometry x="520" y="180" width="120" height="60" as="geometry" />
        </mxCell>
        <mxCell id="sNHot06Kzyu65LDgnPcm-54" style="edgeStyle=orthogonalEdgeStyle;rounded=0;orthogonalLoop=1;jettySize=auto;html=1;entryX=0;entryY=0.5;entryDx=0;entryDy=0;" parent="1" source="sNHot06Kzyu65LDgnPcm-45" target="sNHot06Kzyu65LDgnPcm-52" edge="1">
          <mxGeometry relative="1" as="geometry" />
        </mxCell>
        <mxCell id="sNHot06Kzyu65LDgnPcm-55" style="edgeStyle=orthogonalEdgeStyle;rounded=0;orthogonalLoop=1;jettySize=auto;html=1;entryX=0;entryY=0.5;entryDx=0;entryDy=0;" parent="1" source="sNHot06Kzyu65LDgnPcm-45" target="sNHot06Kzyu65LDgnPcm-53" edge="1">
          <mxGeometry relative="1" as="geometry" />
        </mxCell>
        <mxCell id="sNHot06Kzyu65LDgnPcm-45" value="Max pooling#2" style="rounded=1;whiteSpace=wrap;html=1;" parent="1" vertex="1">
          <mxGeometry x="520" y="320" width="120" height="60" as="geometry" />
        </mxCell>
        <mxCell id="sNHot06Kzyu65LDgnPcm-59" style="edgeStyle=orthogonalEdgeStyle;rounded=0;orthogonalLoop=1;jettySize=auto;html=1;entryX=0;entryY=0.5;entryDx=0;entryDy=0;" parent="1" source="sNHot06Kzyu65LDgnPcm-48" target="sNHot06Kzyu65LDgnPcm-58" edge="1">
          <mxGeometry relative="1" as="geometry" />
        </mxCell>
        <mxCell id="sNHot06Kzyu65LDgnPcm-48" value="out#1" style="whiteSpace=wrap;html=1;aspect=fixed;" parent="1" vertex="1">
          <mxGeometry x="680" y="140" width="60" height="60" as="geometry" />
        </mxCell>
        <mxCell id="sNHot06Kzyu65LDgnPcm-140" style="edgeStyle=orthogonalEdgeStyle;rounded=0;orthogonalLoop=1;jettySize=auto;html=1;entryX=1;entryY=0.5;entryDx=0;entryDy=0;" parent="1" source="sNHot06Kzyu65LDgnPcm-49" target="sNHot06Kzyu65LDgnPcm-134" edge="1">
          <mxGeometry relative="1" as="geometry">
            <Array as="points">
              <mxPoint x="650" y="240" />
              <mxPoint x="650" y="580" />
              <mxPoint x="390" y="580" />
              <mxPoint x="390" y="660" />
            </Array>
          </mxGeometry>
        </mxCell>
        <mxCell id="sNHot06Kzyu65LDgnPcm-49" value="mask#1" style="whiteSpace=wrap;html=1;aspect=fixed;" parent="1" vertex="1">
          <mxGeometry x="680" y="210" width="60" height="60" as="geometry" />
        </mxCell>
        <mxCell id="sNHot06Kzyu65LDgnPcm-60" style="edgeStyle=orthogonalEdgeStyle;rounded=0;orthogonalLoop=1;jettySize=auto;html=1;entryX=0;entryY=0.5;entryDx=0;entryDy=0;" parent="1" source="sNHot06Kzyu65LDgnPcm-52" target="sNHot06Kzyu65LDgnPcm-58" edge="1">
          <mxGeometry relative="1" as="geometry" />
        </mxCell>
        <mxCell id="sNHot06Kzyu65LDgnPcm-52" value="out#2" style="whiteSpace=wrap;html=1;aspect=fixed;" parent="1" vertex="1">
          <mxGeometry x="680" y="290" width="60" height="60" as="geometry" />
        </mxCell>
        <mxCell id="sNHot06Kzyu65LDgnPcm-141" style="edgeStyle=orthogonalEdgeStyle;rounded=0;orthogonalLoop=1;jettySize=auto;html=1;entryX=1;entryY=0.5;entryDx=0;entryDy=0;" parent="1" source="sNHot06Kzyu65LDgnPcm-53" target="sNHot06Kzyu65LDgnPcm-135" edge="1">
          <mxGeometry relative="1" as="geometry">
            <Array as="points">
              <mxPoint x="710" y="590" />
              <mxPoint x="400" y="590" />
              <mxPoint x="400" y="780" />
            </Array>
          </mxGeometry>
        </mxCell>
        <mxCell id="sNHot06Kzyu65LDgnPcm-53" value="mask#2" style="whiteSpace=wrap;html=1;aspect=fixed;" parent="1" vertex="1">
          <mxGeometry x="680" y="360" width="60" height="60" as="geometry" />
        </mxCell>
        <mxCell id="sNHot06Kzyu65LDgnPcm-56" value="" style="endArrow=none;dashed=1;html=1;dashPattern=1 3;strokeWidth=2;rounded=0;" parent="1" edge="1">
          <mxGeometry width="50" height="50" relative="1" as="geometry">
            <mxPoint x="810" y="-30" as="sourcePoint" />
            <mxPoint x="810" y="440" as="targetPoint" />
          </mxGeometry>
        </mxCell>
        <mxCell id="sNHot06Kzyu65LDgnPcm-57" value="&lt;font style=&quot;font-size: 35px;&quot;&gt;dense forward&lt;/font&gt;" style="text;html=1;align=center;verticalAlign=middle;whiteSpace=wrap;rounded=0;" parent="1" vertex="1">
          <mxGeometry x="1050" y="-50" width="290" height="120" as="geometry" />
        </mxCell>
        <mxCell id="sNHot06Kzyu65LDgnPcm-64" style="edgeStyle=orthogonalEdgeStyle;rounded=0;orthogonalLoop=1;jettySize=auto;html=1;" parent="1" source="sNHot06Kzyu65LDgnPcm-58" target="sNHot06Kzyu65LDgnPcm-62" edge="1">
          <mxGeometry relative="1" as="geometry" />
        </mxCell>
        <mxCell id="sNHot06Kzyu65LDgnPcm-58" value="unpartition" style="rounded=1;whiteSpace=wrap;html=1;" parent="1" vertex="1">
          <mxGeometry x="840" y="250" width="120" height="60" as="geometry" />
        </mxCell>
        <mxCell id="sNHot06Kzyu65LDgnPcm-66" style="edgeStyle=orthogonalEdgeStyle;rounded=0;orthogonalLoop=1;jettySize=auto;html=1;entryX=0;entryY=0.5;entryDx=0;entryDy=0;" parent="1" source="sNHot06Kzyu65LDgnPcm-62" target="sNHot06Kzyu65LDgnPcm-65" edge="1">
          <mxGeometry relative="1" as="geometry" />
        </mxCell>
        <mxCell id="sNHot06Kzyu65LDgnPcm-62" value="out forward merged" style="shape=cube;whiteSpace=wrap;html=1;boundedLbl=1;backgroundOutline=1;darkOpacity=0.05;darkOpacity2=0.1;" parent="1" vertex="1">
          <mxGeometry x="990" y="240" width="80" height="80" as="geometry" />
        </mxCell>
        <mxCell id="sNHot06Kzyu65LDgnPcm-68" style="edgeStyle=orthogonalEdgeStyle;rounded=0;orthogonalLoop=1;jettySize=auto;html=1;entryX=0;entryY=0.5;entryDx=0;entryDy=0;" parent="1" source="sNHot06Kzyu65LDgnPcm-65" target="sNHot06Kzyu65LDgnPcm-67" edge="1">
          <mxGeometry relative="1" as="geometry" />
        </mxCell>
        <mxCell id="sNHot06Kzyu65LDgnPcm-65" value="flatten" style="rounded=1;whiteSpace=wrap;html=1;" parent="1" vertex="1">
          <mxGeometry x="1100" y="250" width="80" height="60" as="geometry" />
        </mxCell>
        <mxCell id="sNHot06Kzyu65LDgnPcm-72" style="edgeStyle=orthogonalEdgeStyle;rounded=0;orthogonalLoop=1;jettySize=auto;html=1;" parent="1" source="sNHot06Kzyu65LDgnPcm-67" edge="1">
          <mxGeometry relative="1" as="geometry">
            <mxPoint x="1360" y="280.0000000000002" as="targetPoint" />
          </mxGeometry>
        </mxCell>
        <mxCell id="sNHot06Kzyu65LDgnPcm-100" style="edgeStyle=orthogonalEdgeStyle;rounded=0;orthogonalLoop=1;jettySize=auto;html=1;entryX=1;entryY=0.5;entryDx=0;entryDy=0;" parent="1" source="sNHot06Kzyu65LDgnPcm-67" target="sNHot06Kzyu65LDgnPcm-99" edge="1">
          <mxGeometry relative="1" as="geometry">
            <Array as="points">
              <mxPoint x="1270" y="450" />
              <mxPoint x="1360" y="450" />
              <mxPoint x="1360" y="560" />
              <mxPoint x="1180" y="560" />
              <mxPoint x="1180" y="625" />
            </Array>
          </mxGeometry>
        </mxCell>
        <mxCell id="sNHot06Kzyu65LDgnPcm-102" value="(Necessary conversions are done)" style="edgeLabel;html=1;align=center;verticalAlign=middle;resizable=0;points=[];" parent="sNHot06Kzyu65LDgnPcm-100" vertex="1" connectable="0">
          <mxGeometry x="0.1266" y="3" relative="1" as="geometry">
            <mxPoint x="87" y="-53" as="offset" />
          </mxGeometry>
        </mxCell>
        <mxCell id="sNHot06Kzyu65LDgnPcm-67" value="out forward vector" style="rounded=0;whiteSpace=wrap;html=1;" parent="1" vertex="1">
          <mxGeometry x="1210" y="265" width="120" height="30" as="geometry" />
        </mxCell>
        <mxCell id="sNHot06Kzyu65LDgnPcm-71" style="edgeStyle=orthogonalEdgeStyle;rounded=0;orthogonalLoop=1;jettySize=auto;html=1;entryX=0;entryY=0.5;entryDx=0;entryDy=0;" parent="1" source="sNHot06Kzyu65LDgnPcm-69" target="sNHot06Kzyu65LDgnPcm-70" edge="1">
          <mxGeometry relative="1" as="geometry" />
        </mxCell>
        <mxCell id="sNHot06Kzyu65LDgnPcm-108" style="edgeStyle=orthogonalEdgeStyle;rounded=0;orthogonalLoop=1;jettySize=auto;html=1;entryX=1;entryY=0.5;entryDx=0;entryDy=0;" parent="1" source="sNHot06Kzyu65LDgnPcm-69" target="sNHot06Kzyu65LDgnPcm-106" edge="1">
          <mxGeometry relative="1" as="geometry" />
        </mxCell>
        <mxCell id="sNHot06Kzyu65LDgnPcm-119" style="edgeStyle=orthogonalEdgeStyle;rounded=0;orthogonalLoop=1;jettySize=auto;html=1;entryX=1;entryY=0.5;entryDx=0;entryDy=0;" parent="1" source="sNHot06Kzyu65LDgnPcm-69" target="sNHot06Kzyu65LDgnPcm-117" edge="1">
          <mxGeometry relative="1" as="geometry">
            <Array as="points">
              <mxPoint x="1190" y="190" />
              <mxPoint x="1190" y="570" />
              <mxPoint x="780" y="570" />
              <mxPoint x="780" y="625" />
            </Array>
          </mxGeometry>
        </mxCell>
        <mxCell id="sNHot06Kzyu65LDgnPcm-69" value="Weights" style="whiteSpace=wrap;html=1;aspect=fixed;" parent="1" vertex="1">
          <mxGeometry x="1230" y="150" width="80" height="80" as="geometry" />
        </mxCell>
        <mxCell id="sNHot06Kzyu65LDgnPcm-74" style="edgeStyle=orthogonalEdgeStyle;rounded=0;orthogonalLoop=1;jettySize=auto;html=1;entryX=0;entryY=0.5;entryDx=0;entryDy=0;" parent="1" source="sNHot06Kzyu65LDgnPcm-70" target="sNHot06Kzyu65LDgnPcm-73" edge="1">
          <mxGeometry relative="1" as="geometry" />
        </mxCell>
        <mxCell id="sNHot06Kzyu65LDgnPcm-70" value="matrix vector product" style="rounded=1;whiteSpace=wrap;html=1;" parent="1" vertex="1">
          <mxGeometry x="1360" y="250" width="120" height="60" as="geometry" />
        </mxCell>
        <mxCell id="sNHot06Kzyu65LDgnPcm-78" style="edgeStyle=orthogonalEdgeStyle;rounded=0;orthogonalLoop=1;jettySize=auto;html=1;entryX=0;entryY=0.5;entryDx=0;entryDy=0;" parent="1" source="sNHot06Kzyu65LDgnPcm-73" target="sNHot06Kzyu65LDgnPcm-77" edge="1">
          <mxGeometry relative="1" as="geometry" />
        </mxCell>
        <mxCell id="sNHot06Kzyu65LDgnPcm-73" value="add" style="rounded=1;whiteSpace=wrap;html=1;" parent="1" vertex="1">
          <mxGeometry x="1510" y="250" width="60" height="60" as="geometry" />
        </mxCell>
        <mxCell id="sNHot06Kzyu65LDgnPcm-76" style="edgeStyle=orthogonalEdgeStyle;rounded=0;orthogonalLoop=1;jettySize=auto;html=1;exitX=1;exitY=0.5;exitDx=0;exitDy=0;entryX=0;entryY=0.5;entryDx=0;entryDy=0;" parent="1" source="sNHot06Kzyu65LDgnPcm-75" target="sNHot06Kzyu65LDgnPcm-73" edge="1">
          <mxGeometry relative="1" as="geometry" />
        </mxCell>
        <mxCell id="sNHot06Kzyu65LDgnPcm-122" style="edgeStyle=orthogonalEdgeStyle;rounded=0;orthogonalLoop=1;jettySize=auto;html=1;entryX=1;entryY=0.5;entryDx=0;entryDy=0;" parent="1" source="sNHot06Kzyu65LDgnPcm-75" target="sNHot06Kzyu65LDgnPcm-120" edge="1">
          <mxGeometry relative="1" as="geometry">
            <Array as="points">
              <mxPoint x="1425" y="160" />
              <mxPoint x="1900" y="160" />
              <mxPoint x="1900" y="870" />
              <mxPoint x="1020" y="870" />
              <mxPoint x="1020" y="820" />
            </Array>
          </mxGeometry>
        </mxCell>
        <mxCell id="sNHot06Kzyu65LDgnPcm-75" value="bias vector" style="rounded=0;whiteSpace=wrap;html=1;" parent="1" vertex="1">
          <mxGeometry x="1380" y="180" width="90" height="30" as="geometry" />
        </mxCell>
        <mxCell id="sNHot06Kzyu65LDgnPcm-82" style="edgeStyle=orthogonalEdgeStyle;rounded=0;orthogonalLoop=1;jettySize=auto;html=1;entryX=0;entryY=0.5;entryDx=0;entryDy=0;" parent="1" source="sNHot06Kzyu65LDgnPcm-77" target="sNHot06Kzyu65LDgnPcm-81" edge="1">
          <mxGeometry relative="1" as="geometry" />
        </mxCell>
        <mxCell id="sNHot06Kzyu65LDgnPcm-77" value="softmax" style="rounded=1;whiteSpace=wrap;html=1;" parent="1" vertex="1">
          <mxGeometry x="1600" y="250" width="120" height="60" as="geometry" />
        </mxCell>
        <mxCell id="sNHot06Kzyu65LDgnPcm-79" value="" style="endArrow=none;dashed=1;html=1;dashPattern=1 3;strokeWidth=2;rounded=0;" parent="1" edge="1">
          <mxGeometry width="50" height="50" relative="1" as="geometry">
            <mxPoint x="1737.0588235294117" y="440" as="sourcePoint" />
            <mxPoint x="-280" y="440" as="targetPoint" />
          </mxGeometry>
        </mxCell>
        <mxCell id="sNHot06Kzyu65LDgnPcm-80" value="&lt;font style=&quot;font-size: 35px;&quot;&gt;dense backward&lt;/font&gt;" style="text;html=1;align=center;verticalAlign=middle;whiteSpace=wrap;rounded=0;" parent="1" vertex="1">
          <mxGeometry x="900" y="440" width="290" height="120" as="geometry" />
        </mxCell>
        <mxCell id="sNHot06Kzyu65LDgnPcm-85" style="edgeStyle=orthogonalEdgeStyle;rounded=0;orthogonalLoop=1;jettySize=auto;html=1;entryX=1;entryY=0.5;entryDx=0;entryDy=0;" parent="1" source="sNHot06Kzyu65LDgnPcm-81" target="sNHot06Kzyu65LDgnPcm-87" edge="1">
          <mxGeometry relative="1" as="geometry">
            <mxPoint x="1720" y="670" as="targetPoint" />
            <Array as="points">
              <mxPoint x="1795" y="670" />
            </Array>
          </mxGeometry>
        </mxCell>
        <mxCell id="sNHot06Kzyu65LDgnPcm-90" style="edgeStyle=orthogonalEdgeStyle;rounded=0;orthogonalLoop=1;jettySize=auto;html=1;entryX=1;entryY=0.5;entryDx=0;entryDy=0;" parent="1" source="sNHot06Kzyu65LDgnPcm-81" target="sNHot06Kzyu65LDgnPcm-89" edge="1">
          <mxGeometry relative="1" as="geometry">
            <Array as="points">
              <mxPoint x="1795" y="580" />
            </Array>
          </mxGeometry>
        </mxCell>
        <mxCell id="sNHot06Kzyu65LDgnPcm-81" value="predictions" style="rounded=0;whiteSpace=wrap;html=1;" parent="1" vertex="1">
          <mxGeometry x="1750" y="265" width="90" height="30" as="geometry" />
        </mxCell>
        <mxCell id="sNHot06Kzyu65LDgnPcm-98" style="edgeStyle=orthogonalEdgeStyle;rounded=0;orthogonalLoop=1;jettySize=auto;html=1;entryX=1;entryY=0.5;entryDx=0;entryDy=0;" parent="1" source="sNHot06Kzyu65LDgnPcm-87" target="sNHot06Kzyu65LDgnPcm-96" edge="1">
          <mxGeometry relative="1" as="geometry" />
        </mxCell>
        <mxCell id="sNHot06Kzyu65LDgnPcm-87" value="softmax derivative" style="rounded=1;whiteSpace=wrap;html=1;" parent="1" vertex="1">
          <mxGeometry x="1600" y="640" width="120" height="60" as="geometry" />
        </mxCell>
        <mxCell id="sNHot06Kzyu65LDgnPcm-95" style="edgeStyle=orthogonalEdgeStyle;rounded=0;orthogonalLoop=1;jettySize=auto;html=1;entryX=1;entryY=0.5;entryDx=0;entryDy=0;" parent="1" source="sNHot06Kzyu65LDgnPcm-89" target="sNHot06Kzyu65LDgnPcm-94" edge="1">
          <mxGeometry relative="1" as="geometry" />
        </mxCell>
        <mxCell id="sNHot06Kzyu65LDgnPcm-89" value="cross entropy loss gradient" style="rounded=1;whiteSpace=wrap;html=1;" parent="1" vertex="1">
          <mxGeometry x="1600" y="550" width="120" height="60" as="geometry" />
        </mxCell>
        <mxCell id="sNHot06Kzyu65LDgnPcm-97" style="edgeStyle=orthogonalEdgeStyle;rounded=0;orthogonalLoop=1;jettySize=auto;html=1;entryX=1;entryY=0.5;entryDx=0;entryDy=0;" parent="1" source="sNHot06Kzyu65LDgnPcm-94" target="sNHot06Kzyu65LDgnPcm-96" edge="1">
          <mxGeometry relative="1" as="geometry" />
        </mxCell>
        <mxCell id="sNHot06Kzyu65LDgnPcm-94" value="gradient vector" style="rounded=0;whiteSpace=wrap;html=1;" parent="1" vertex="1">
          <mxGeometry x="1450" y="565" width="120" height="30" as="geometry" />
        </mxCell>
        <mxCell id="sNHot06Kzyu65LDgnPcm-104" style="edgeStyle=orthogonalEdgeStyle;rounded=0;orthogonalLoop=1;jettySize=auto;html=1;entryX=1;entryY=0.5;entryDx=0;entryDy=0;" parent="1" source="sNHot06Kzyu65LDgnPcm-96" target="sNHot06Kzyu65LDgnPcm-103" edge="1">
          <mxGeometry relative="1" as="geometry" />
        </mxCell>
        <mxCell id="sNHot06Kzyu65LDgnPcm-96" value="matrix vector product" style="rounded=1;whiteSpace=wrap;html=1;" parent="1" vertex="1">
          <mxGeometry x="1290" y="595" width="120" height="60" as="geometry" />
        </mxCell>
        <mxCell id="sNHot06Kzyu65LDgnPcm-110" style="edgeStyle=orthogonalEdgeStyle;rounded=0;orthogonalLoop=1;jettySize=auto;html=1;entryX=1;entryY=0.5;entryDx=0;entryDy=0;" parent="1" source="sNHot06Kzyu65LDgnPcm-99" target="sNHot06Kzyu65LDgnPcm-109" edge="1">
          <mxGeometry relative="1" as="geometry" />
        </mxCell>
        <mxCell id="sNHot06Kzyu65LDgnPcm-99" value="matrix matrix product" style="rounded=1;whiteSpace=wrap;html=1;" parent="1" vertex="1">
          <mxGeometry x="1040" y="595" width="120" height="60" as="geometry" />
        </mxCell>
        <mxCell id="sNHot06Kzyu65LDgnPcm-105" style="edgeStyle=orthogonalEdgeStyle;rounded=0;orthogonalLoop=1;jettySize=auto;html=1;entryX=1;entryY=0.5;entryDx=0;entryDy=0;" parent="1" source="sNHot06Kzyu65LDgnPcm-103" target="sNHot06Kzyu65LDgnPcm-99" edge="1">
          <mxGeometry relative="1" as="geometry" />
        </mxCell>
        <mxCell id="sNHot06Kzyu65LDgnPcm-107" style="edgeStyle=orthogonalEdgeStyle;rounded=0;orthogonalLoop=1;jettySize=auto;html=1;entryX=1;entryY=0.5;entryDx=0;entryDy=0;" parent="1" source="sNHot06Kzyu65LDgnPcm-103" target="sNHot06Kzyu65LDgnPcm-106" edge="1">
          <mxGeometry relative="1" as="geometry">
            <Array as="points">
              <mxPoint x="1190" y="625" />
              <mxPoint x="1190" y="720" />
            </Array>
          </mxGeometry>
        </mxCell>
        <mxCell id="sNHot06Kzyu65LDgnPcm-116" style="edgeStyle=orthogonalEdgeStyle;rounded=0;orthogonalLoop=1;jettySize=auto;html=1;entryX=1;entryY=0.5;entryDx=0;entryDy=0;" parent="1" source="sNHot06Kzyu65LDgnPcm-103" target="sNHot06Kzyu65LDgnPcm-115" edge="1">
          <mxGeometry relative="1" as="geometry">
            <Array as="points">
              <mxPoint x="1230" y="820" />
            </Array>
          </mxGeometry>
        </mxCell>
        <mxCell id="sNHot06Kzyu65LDgnPcm-103" value="dl_dy" style="rounded=0;whiteSpace=wrap;html=1;" parent="1" vertex="1">
          <mxGeometry x="1200" y="607.5" width="60" height="35" as="geometry" />
        </mxCell>
        <mxCell id="sNHot06Kzyu65LDgnPcm-113" style="edgeStyle=orthogonalEdgeStyle;rounded=0;orthogonalLoop=1;jettySize=auto;html=1;" parent="1" source="sNHot06Kzyu65LDgnPcm-106" target="sNHot06Kzyu65LDgnPcm-114" edge="1">
          <mxGeometry relative="1" as="geometry">
            <mxPoint x="960" y="720" as="targetPoint" />
          </mxGeometry>
        </mxCell>
        <mxCell id="sNHot06Kzyu65LDgnPcm-106" value="matrix vector product" style="rounded=1;whiteSpace=wrap;html=1;" parent="1" vertex="1">
          <mxGeometry x="1040" y="690" width="120" height="60" as="geometry" />
        </mxCell>
        <mxCell id="sNHot06Kzyu65LDgnPcm-112" style="edgeStyle=orthogonalEdgeStyle;rounded=0;orthogonalLoop=1;jettySize=auto;html=1;entryX=1;entryY=0.5;entryDx=0;entryDy=0;" parent="1" source="sNHot06Kzyu65LDgnPcm-109" target="sNHot06Kzyu65LDgnPcm-111" edge="1">
          <mxGeometry relative="1" as="geometry" />
        </mxCell>
        <mxCell id="sNHot06Kzyu65LDgnPcm-109" value="dl_dw" style="rounded=0;whiteSpace=wrap;html=1;" parent="1" vertex="1">
          <mxGeometry x="950" y="607.5" width="60" height="35" as="geometry" />
        </mxCell>
        <mxCell id="sNHot06Kzyu65LDgnPcm-118" style="edgeStyle=orthogonalEdgeStyle;rounded=0;orthogonalLoop=1;jettySize=auto;html=1;entryX=1;entryY=0.5;entryDx=0;entryDy=0;" parent="1" source="sNHot06Kzyu65LDgnPcm-111" target="sNHot06Kzyu65LDgnPcm-117" edge="1">
          <mxGeometry relative="1" as="geometry" />
        </mxCell>
        <mxCell id="sNHot06Kzyu65LDgnPcm-111" value="scale by learning rate" style="rounded=1;whiteSpace=wrap;html=1;" parent="1" vertex="1">
          <mxGeometry x="800" y="595" width="120" height="60" as="geometry" />
        </mxCell>
        <mxCell id="sNHot06Kzyu65LDgnPcm-129" style="edgeStyle=orthogonalEdgeStyle;rounded=0;orthogonalLoop=1;jettySize=auto;html=1;entryX=1;entryY=0.5;entryDx=0;entryDy=0;" parent="1" source="sNHot06Kzyu65LDgnPcm-114" target="sNHot06Kzyu65LDgnPcm-128" edge="1">
          <mxGeometry relative="1" as="geometry" />
        </mxCell>
        <mxCell id="sNHot06Kzyu65LDgnPcm-114" value="dl_dinput" style="shape=cube;whiteSpace=wrap;html=1;boundedLbl=1;backgroundOutline=1;darkOpacity=0.05;darkOpacity2=0.1;" parent="1" vertex="1">
          <mxGeometry x="880" y="680" width="80" height="80" as="geometry" />
        </mxCell>
        <mxCell id="sNHot06Kzyu65LDgnPcm-121" style="edgeStyle=orthogonalEdgeStyle;rounded=0;orthogonalLoop=1;jettySize=auto;html=1;entryX=1;entryY=0.5;entryDx=0;entryDy=0;" parent="1" source="sNHot06Kzyu65LDgnPcm-115" target="sNHot06Kzyu65LDgnPcm-120" edge="1">
          <mxGeometry relative="1" as="geometry" />
        </mxCell>
        <mxCell id="sNHot06Kzyu65LDgnPcm-115" value="scale by learning rate" style="rounded=1;whiteSpace=wrap;html=1;" parent="1" vertex="1">
          <mxGeometry x="1040" y="790" width="120" height="60" as="geometry" />
        </mxCell>
        <mxCell id="sNHot06Kzyu65LDgnPcm-117" value="sub" style="rounded=1;whiteSpace=wrap;html=1;" parent="1" vertex="1">
          <mxGeometry x="700" y="595" width="60" height="60" as="geometry" />
        </mxCell>
        <mxCell id="sNHot06Kzyu65LDgnPcm-120" value="sub" style="rounded=1;whiteSpace=wrap;html=1;" parent="1" vertex="1">
          <mxGeometry x="940" y="790" width="60" height="60" as="geometry" />
        </mxCell>
        <mxCell id="sNHot06Kzyu65LDgnPcm-123" value="(updates weights)" style="text;html=1;align=center;verticalAlign=middle;whiteSpace=wrap;rounded=0;" parent="1" vertex="1">
          <mxGeometry x="700" y="655" width="60" height="30" as="geometry" />
        </mxCell>
        <mxCell id="sNHot06Kzyu65LDgnPcm-124" value="(updates biases)" style="text;html=1;align=center;verticalAlign=middle;whiteSpace=wrap;rounded=0;" parent="1" vertex="1">
          <mxGeometry x="940" y="850" width="60" height="30" as="geometry" />
        </mxCell>
        <mxCell id="sNHot06Kzyu65LDgnPcm-125" value="(to block)" style="text;html=1;align=center;verticalAlign=middle;whiteSpace=wrap;rounded=0;" parent="1" vertex="1">
          <mxGeometry x="970" y="720" width="60" height="30" as="geometry" />
        </mxCell>
        <mxCell id="sNHot06Kzyu65LDgnPcm-126" value="" style="endArrow=none;dashed=1;html=1;dashPattern=1 3;strokeWidth=2;rounded=0;" parent="1" edge="1">
          <mxGeometry width="50" height="50" relative="1" as="geometry">
            <mxPoint x="680" y="440" as="sourcePoint" />
            <mxPoint x="680" y="910" as="targetPoint" />
          </mxGeometry>
        </mxCell>
        <mxCell id="sNHot06Kzyu65LDgnPcm-127" value="&lt;font style=&quot;font-size: 35px;&quot;&gt;pool backward&lt;/font&gt;" style="text;html=1;align=center;verticalAlign=middle;whiteSpace=wrap;rounded=0;" parent="1" vertex="1">
          <mxGeometry x="370" y="445" width="290" height="120" as="geometry" />
        </mxCell>
        <mxCell id="sNHot06Kzyu65LDgnPcm-132" style="edgeStyle=orthogonalEdgeStyle;rounded=0;orthogonalLoop=1;jettySize=auto;html=1;entryX=1;entryY=0.5;entryDx=0;entryDy=0;" parent="1" source="sNHot06Kzyu65LDgnPcm-128" target="sNHot06Kzyu65LDgnPcm-130" edge="1">
          <mxGeometry relative="1" as="geometry" />
        </mxCell>
        <mxCell id="sNHot06Kzyu65LDgnPcm-133" style="edgeStyle=orthogonalEdgeStyle;rounded=0;orthogonalLoop=1;jettySize=auto;html=1;entryX=1;entryY=0.5;entryDx=0;entryDy=0;" parent="1" source="sNHot06Kzyu65LDgnPcm-128" target="sNHot06Kzyu65LDgnPcm-131" edge="1">
          <mxGeometry relative="1" as="geometry" />
        </mxCell>
        <mxCell id="sNHot06Kzyu65LDgnPcm-128" value="partition" style="rounded=1;whiteSpace=wrap;html=1;" parent="1" vertex="1">
          <mxGeometry x="530" y="690" width="120" height="60" as="geometry" />
        </mxCell>
        <mxCell id="sNHot06Kzyu65LDgnPcm-136" style="edgeStyle=orthogonalEdgeStyle;rounded=0;orthogonalLoop=1;jettySize=auto;html=1;entryX=1;entryY=0.5;entryDx=0;entryDy=0;" parent="1" source="sNHot06Kzyu65LDgnPcm-130" target="sNHot06Kzyu65LDgnPcm-134" edge="1">
          <mxGeometry relative="1" as="geometry" />
        </mxCell>
        <mxCell id="sNHot06Kzyu65LDgnPcm-130" value="dl_dout#1" style="whiteSpace=wrap;html=1;aspect=fixed;" parent="1" vertex="1">
          <mxGeometry x="410" y="620" width="80" height="80" as="geometry" />
        </mxCell>
        <mxCell id="sNHot06Kzyu65LDgnPcm-137" style="edgeStyle=orthogonalEdgeStyle;rounded=0;orthogonalLoop=1;jettySize=auto;html=1;entryX=1;entryY=0.5;entryDx=0;entryDy=0;" parent="1" source="sNHot06Kzyu65LDgnPcm-131" target="sNHot06Kzyu65LDgnPcm-135" edge="1">
          <mxGeometry relative="1" as="geometry" />
        </mxCell>
        <mxCell id="sNHot06Kzyu65LDgnPcm-131" value="dl_dout#2" style="whiteSpace=wrap;html=1;aspect=fixed;" parent="1" vertex="1">
          <mxGeometry x="410" y="740" width="80" height="80" as="geometry" />
        </mxCell>
        <mxCell id="sNHot06Kzyu65LDgnPcm-148" style="edgeStyle=orthogonalEdgeStyle;rounded=0;orthogonalLoop=1;jettySize=auto;html=1;entryX=1;entryY=0.5;entryDx=0;entryDy=0;" parent="1" source="sNHot06Kzyu65LDgnPcm-134" target="sNHot06Kzyu65LDgnPcm-144" edge="1">
          <mxGeometry relative="1" as="geometry" />
        </mxCell>
        <mxCell id="sNHot06Kzyu65LDgnPcm-151" style="edgeStyle=orthogonalEdgeStyle;rounded=0;orthogonalLoop=1;jettySize=auto;html=1;entryX=1;entryY=0.5;entryDx=0;entryDy=0;" parent="1" source="sNHot06Kzyu65LDgnPcm-134" target="sNHot06Kzyu65LDgnPcm-150" edge="1">
          <mxGeometry relative="1" as="geometry" />
        </mxCell>
        <mxCell id="sNHot06Kzyu65LDgnPcm-184" style="edgeStyle=orthogonalEdgeStyle;rounded=0;orthogonalLoop=1;jettySize=auto;html=1;entryX=1;entryY=0.5;entryDx=0;entryDy=0;" parent="1" source="sNHot06Kzyu65LDgnPcm-134" target="sNHot06Kzyu65LDgnPcm-183" edge="1">
          <mxGeometry relative="1" as="geometry">
            <Array as="points">
              <mxPoint x="230" y="660" />
              <mxPoint x="230" y="1110" />
            </Array>
          </mxGeometry>
        </mxCell>
        <mxCell id="sNHot06Kzyu65LDgnPcm-134" value="backward maxpooling#1" style="rounded=1;whiteSpace=wrap;html=1;" parent="1" vertex="1">
          <mxGeometry x="250" y="630" width="120" height="60" as="geometry" />
        </mxCell>
        <mxCell id="sNHot06Kzyu65LDgnPcm-149" style="edgeStyle=orthogonalEdgeStyle;rounded=0;orthogonalLoop=1;jettySize=auto;html=1;entryX=1;entryY=0.5;entryDx=0;entryDy=0;" parent="1" source="sNHot06Kzyu65LDgnPcm-135" target="sNHot06Kzyu65LDgnPcm-145" edge="1">
          <mxGeometry relative="1" as="geometry" />
        </mxCell>
        <mxCell id="sNHot06Kzyu65LDgnPcm-154" style="edgeStyle=orthogonalEdgeStyle;rounded=0;orthogonalLoop=1;jettySize=auto;html=1;entryX=1;entryY=0.5;entryDx=0;entryDy=0;" parent="1" source="sNHot06Kzyu65LDgnPcm-135" target="sNHot06Kzyu65LDgnPcm-153" edge="1">
          <mxGeometry relative="1" as="geometry" />
        </mxCell>
        <mxCell id="sNHot06Kzyu65LDgnPcm-187" style="edgeStyle=orthogonalEdgeStyle;rounded=0;orthogonalLoop=1;jettySize=auto;html=1;entryX=1;entryY=0.5;entryDx=0;entryDy=0;" parent="1" source="sNHot06Kzyu65LDgnPcm-135" target="sNHot06Kzyu65LDgnPcm-186" edge="1">
          <mxGeometry relative="1" as="geometry">
            <Array as="points">
              <mxPoint x="240" y="780" />
              <mxPoint x="240" y="1210" />
            </Array>
          </mxGeometry>
        </mxCell>
        <mxCell id="sNHot06Kzyu65LDgnPcm-135" value="backward maxpooling#2" style="rounded=1;whiteSpace=wrap;html=1;" parent="1" vertex="1">
          <mxGeometry x="250" y="750" width="120" height="60" as="geometry" />
        </mxCell>
        <mxCell id="sNHot06Kzyu65LDgnPcm-142" value="" style="endArrow=none;dashed=1;html=1;dashPattern=1 3;strokeWidth=2;rounded=0;" parent="1" edge="1">
          <mxGeometry width="50" height="50" relative="1" as="geometry">
            <mxPoint x="210" y="440" as="sourcePoint" />
            <mxPoint x="210" y="910" as="targetPoint" />
          </mxGeometry>
        </mxCell>
        <mxCell id="sNHot06Kzyu65LDgnPcm-143" value="&lt;font style=&quot;font-size: 35px;&quot;&gt;conv backward&lt;/font&gt;" style="text;html=1;align=center;verticalAlign=middle;whiteSpace=wrap;rounded=0;" parent="1" vertex="1">
          <mxGeometry x="-250" y="440" width="290" height="120" as="geometry" />
        </mxCell>
        <mxCell id="sNHot06Kzyu65LDgnPcm-167" style="edgeStyle=orthogonalEdgeStyle;rounded=0;orthogonalLoop=1;jettySize=auto;html=1;entryX=1;entryY=0.5;entryDx=0;entryDy=0;" parent="1" source="sNHot06Kzyu65LDgnPcm-144" target="sNHot06Kzyu65LDgnPcm-165" edge="1">
          <mxGeometry relative="1" as="geometry" />
        </mxCell>
        <mxCell id="sNHot06Kzyu65LDgnPcm-144" value="Cross correlation#1" style="rounded=1;whiteSpace=wrap;html=1;" parent="1" vertex="1">
          <mxGeometry x="40" y="630" width="120" height="60" as="geometry" />
        </mxCell>
        <mxCell id="sNHot06Kzyu65LDgnPcm-168" style="edgeStyle=orthogonalEdgeStyle;rounded=0;orthogonalLoop=1;jettySize=auto;html=1;entryX=1;entryY=0.5;entryDx=0;entryDy=0;" parent="1" source="sNHot06Kzyu65LDgnPcm-145" target="sNHot06Kzyu65LDgnPcm-166" edge="1">
          <mxGeometry relative="1" as="geometry" />
        </mxCell>
        <mxCell id="sNHot06Kzyu65LDgnPcm-145" value="Cross correlation#2" style="rounded=1;whiteSpace=wrap;html=1;" parent="1" vertex="1">
          <mxGeometry x="40" y="750" width="120" height="60" as="geometry" />
        </mxCell>
        <mxCell id="sNHot06Kzyu65LDgnPcm-157" style="edgeStyle=orthogonalEdgeStyle;rounded=0;orthogonalLoop=1;jettySize=auto;html=1;entryX=1;entryY=0.5;entryDx=0;entryDy=0;" parent="1" source="sNHot06Kzyu65LDgnPcm-150" target="sNHot06Kzyu65LDgnPcm-155" edge="1">
          <mxGeometry relative="1" as="geometry" />
        </mxCell>
        <mxCell id="sNHot06Kzyu65LDgnPcm-150" value="add padding#1" style="rounded=1;whiteSpace=wrap;html=1;" parent="1" vertex="1">
          <mxGeometry x="40" y="880" width="120" height="60" as="geometry" />
        </mxCell>
        <mxCell id="sNHot06Kzyu65LDgnPcm-158" style="edgeStyle=orthogonalEdgeStyle;rounded=0;orthogonalLoop=1;jettySize=auto;html=1;entryX=1;entryY=0.5;entryDx=0;entryDy=0;" parent="1" source="sNHot06Kzyu65LDgnPcm-153" target="sNHot06Kzyu65LDgnPcm-156" edge="1">
          <mxGeometry relative="1" as="geometry" />
        </mxCell>
        <mxCell id="sNHot06Kzyu65LDgnPcm-153" value="add padding#2" style="rounded=1;whiteSpace=wrap;html=1;" parent="1" vertex="1">
          <mxGeometry x="40" y="970" width="120" height="60" as="geometry" />
        </mxCell>
        <mxCell id="sNHot06Kzyu65LDgnPcm-163" style="edgeStyle=orthogonalEdgeStyle;rounded=0;orthogonalLoop=1;jettySize=auto;html=1;entryX=1;entryY=0.5;entryDx=0;entryDy=0;" parent="1" source="sNHot06Kzyu65LDgnPcm-155" target="sNHot06Kzyu65LDgnPcm-162" edge="1">
          <mxGeometry relative="1" as="geometry" />
        </mxCell>
        <mxCell id="sNHot06Kzyu65LDgnPcm-155" value="Cross correlation#1" style="rounded=1;whiteSpace=wrap;html=1;" parent="1" vertex="1">
          <mxGeometry x="-120" y="880" width="120" height="60" as="geometry" />
        </mxCell>
        <mxCell id="sNHot06Kzyu65LDgnPcm-164" style="edgeStyle=orthogonalEdgeStyle;rounded=0;orthogonalLoop=1;jettySize=auto;html=1;entryX=1;entryY=0.5;entryDx=0;entryDy=0;" parent="1" source="sNHot06Kzyu65LDgnPcm-156" target="sNHot06Kzyu65LDgnPcm-162" edge="1">
          <mxGeometry relative="1" as="geometry" />
        </mxCell>
        <mxCell id="sNHot06Kzyu65LDgnPcm-156" value="Cross correlation#2" style="rounded=1;whiteSpace=wrap;html=1;" parent="1" vertex="1">
          <mxGeometry x="-120" y="970" width="120" height="60" as="geometry" />
        </mxCell>
        <mxCell id="sNHot06Kzyu65LDgnPcm-162" value="add" style="rounded=1;whiteSpace=wrap;html=1;" parent="1" vertex="1">
          <mxGeometry x="-250" y="930" width="70" height="60" as="geometry" />
        </mxCell>
        <mxCell id="sNHot06Kzyu65LDgnPcm-175" style="edgeStyle=orthogonalEdgeStyle;rounded=0;orthogonalLoop=1;jettySize=auto;html=1;entryX=1;entryY=0.5;entryDx=0;entryDy=0;" parent="1" source="sNHot06Kzyu65LDgnPcm-165" target="sNHot06Kzyu65LDgnPcm-173" edge="1">
          <mxGeometry relative="1" as="geometry" />
        </mxCell>
        <mxCell id="sNHot06Kzyu65LDgnPcm-165" value="scal by learning rate#1" style="rounded=1;whiteSpace=wrap;html=1;" parent="1" vertex="1">
          <mxGeometry x="-130" y="630" width="120" height="60" as="geometry" />
        </mxCell>
        <mxCell id="sNHot06Kzyu65LDgnPcm-177" style="edgeStyle=orthogonalEdgeStyle;rounded=0;orthogonalLoop=1;jettySize=auto;html=1;entryX=1;entryY=0.5;entryDx=0;entryDy=0;" parent="1" source="sNHot06Kzyu65LDgnPcm-166" target="sNHot06Kzyu65LDgnPcm-174" edge="1">
          <mxGeometry relative="1" as="geometry" />
        </mxCell>
        <mxCell id="sNHot06Kzyu65LDgnPcm-166" value="scal by learning rate#1" style="rounded=1;whiteSpace=wrap;html=1;" parent="1" vertex="1">
          <mxGeometry x="-130" y="750" width="120" height="60" as="geometry" />
        </mxCell>
        <mxCell id="sNHot06Kzyu65LDgnPcm-171" style="edgeStyle=orthogonalEdgeStyle;rounded=0;orthogonalLoop=1;jettySize=auto;html=1;entryX=0;entryY=0.5;entryDx=0;entryDy=0;" parent="1" source="sNHot06Kzyu65LDgnPcm-169" target="sNHot06Kzyu65LDgnPcm-170" edge="1">
          <mxGeometry relative="1" as="geometry" />
        </mxCell>
        <mxCell id="sNHot06Kzyu65LDgnPcm-169" value="dataset" style="shape=cube;whiteSpace=wrap;html=1;boundedLbl=1;backgroundOutline=1;darkOpacity=0.05;darkOpacity2=0.1;" parent="1" vertex="1">
          <mxGeometry x="-260" y="240" width="80" height="80" as="geometry" />
        </mxCell>
        <mxCell id="sNHot06Kzyu65LDgnPcm-172" style="edgeStyle=orthogonalEdgeStyle;rounded=0;orthogonalLoop=1;jettySize=auto;html=1;entryX=0;entryY=0.5;entryDx=0;entryDy=0;" parent="1" source="sNHot06Kzyu65LDgnPcm-170" target="sNHot06Kzyu65LDgnPcm-2" edge="1">
          <mxGeometry relative="1" as="geometry" />
        </mxCell>
        <mxCell id="sNHot06Kzyu65LDgnPcm-170" value="partition" style="rounded=1;whiteSpace=wrap;html=1;" parent="1" vertex="1">
          <mxGeometry x="-130" y="250" width="120" height="60" as="geometry" />
        </mxCell>
        <mxCell id="sNHot06Kzyu65LDgnPcm-173" value="sub" style="rounded=1;whiteSpace=wrap;html=1;" parent="1" vertex="1">
          <mxGeometry x="-230" y="630" width="60" height="60" as="geometry" />
        </mxCell>
        <mxCell id="sNHot06Kzyu65LDgnPcm-174" value="sub" style="rounded=1;whiteSpace=wrap;html=1;" parent="1" vertex="1">
          <mxGeometry x="-230" y="750" width="60" height="60" as="geometry" />
        </mxCell>
        <mxCell id="sNHot06Kzyu65LDgnPcm-178" value="" style="endArrow=classic;html=1;rounded=0;entryX=1;entryY=0.5;entryDx=0;entryDy=0;" parent="1" target="sNHot06Kzyu65LDgnPcm-173" edge="1">
          <mxGeometry width="50" height="50" relative="1" as="geometry">
            <mxPoint x="30" y="600" as="sourcePoint" />
            <mxPoint x="160" y="710" as="targetPoint" />
            <Array as="points">
              <mxPoint x="-140" y="600" />
              <mxPoint x="-140" y="660" />
            </Array>
          </mxGeometry>
        </mxCell>
        <mxCell id="sNHot06Kzyu65LDgnPcm-179" value="" style="endArrow=classic;html=1;rounded=0;entryX=1;entryY=0.5;entryDx=0;entryDy=0;" parent="1" target="sNHot06Kzyu65LDgnPcm-174" edge="1">
          <mxGeometry width="50" height="50" relative="1" as="geometry">
            <mxPoint x="20" y="590" as="sourcePoint" />
            <mxPoint x="-180" y="630" as="targetPoint" />
            <Array as="points">
              <mxPoint x="-150" y="590" />
              <mxPoint x="-150" y="780" />
            </Array>
          </mxGeometry>
        </mxCell>
        <mxCell id="sNHot06Kzyu65LDgnPcm-180" value="(update filters)" style="text;html=1;align=center;verticalAlign=middle;whiteSpace=wrap;rounded=0;" parent="1" vertex="1">
          <mxGeometry x="-230" y="700" width="60" height="30" as="geometry" />
        </mxCell>
        <mxCell id="sNHot06Kzyu65LDgnPcm-181" value="(update filters)" style="text;html=1;align=center;verticalAlign=middle;whiteSpace=wrap;rounded=0;" parent="1" vertex="1">
          <mxGeometry x="-230" y="820" width="60" height="30" as="geometry" />
        </mxCell>
        <mxCell id="sNHot06Kzyu65LDgnPcm-191" style="edgeStyle=orthogonalEdgeStyle;rounded=0;orthogonalLoop=1;jettySize=auto;html=1;entryX=1;entryY=0.5;entryDx=0;entryDy=0;" parent="1" source="sNHot06Kzyu65LDgnPcm-183" target="sNHot06Kzyu65LDgnPcm-188" edge="1">
          <mxGeometry relative="1" as="geometry" />
        </mxCell>
        <mxCell id="sNHot06Kzyu65LDgnPcm-183" value="scale by learning rate#1" style="rounded=1;whiteSpace=wrap;html=1;" parent="1" vertex="1">
          <mxGeometry x="40" y="1080" width="120" height="60" as="geometry" />
        </mxCell>
        <mxCell id="sNHot06Kzyu65LDgnPcm-190" style="edgeStyle=orthogonalEdgeStyle;rounded=0;orthogonalLoop=1;jettySize=auto;html=1;entryX=1;entryY=0.5;entryDx=0;entryDy=0;" parent="1" source="sNHot06Kzyu65LDgnPcm-186" target="sNHot06Kzyu65LDgnPcm-189" edge="1">
          <mxGeometry relative="1" as="geometry" />
        </mxCell>
        <mxCell id="sNHot06Kzyu65LDgnPcm-186" value="scale by learning rate#2" style="rounded=1;whiteSpace=wrap;html=1;" parent="1" vertex="1">
          <mxGeometry x="40" y="1180" width="120" height="60" as="geometry" />
        </mxCell>
        <mxCell id="sNHot06Kzyu65LDgnPcm-188" value="sub" style="rounded=1;whiteSpace=wrap;html=1;" parent="1" vertex="1">
          <mxGeometry x="-70" y="1080" width="60" height="60" as="geometry" />
        </mxCell>
        <mxCell id="sNHot06Kzyu65LDgnPcm-189" value="sub" style="rounded=1;whiteSpace=wrap;html=1;" parent="1" vertex="1">
          <mxGeometry x="-70" y="1180" width="60" height="60" as="geometry" />
        </mxCell>
        <mxCell id="sNHot06Kzyu65LDgnPcm-192" value="(update biases)" style="text;html=1;align=center;verticalAlign=middle;whiteSpace=wrap;rounded=0;" parent="1" vertex="1">
          <mxGeometry x="-70" y="1140" width="60" height="30" as="geometry" />
        </mxCell>
        <mxCell id="sNHot06Kzyu65LDgnPcm-193" value="(update biases)" style="text;html=1;align=center;verticalAlign=middle;whiteSpace=wrap;rounded=0;" parent="1" vertex="1">
          <mxGeometry x="-70" y="1240" width="60" height="30" as="geometry" />
        </mxCell>
        <mxCell id="5_L3FHl470YcaegGqM6t-1" value="Remark: I forgot to add the bias in the actual implementation :O" style="text;html=1;align=center;verticalAlign=middle;whiteSpace=wrap;rounded=0;" vertex="1" parent="1">
          <mxGeometry x="80" y="-80" width="260" height="60" as="geometry" />
        </mxCell>
        <mxCell id="5_L3FHl470YcaegGqM6t-2" value="&lt;font style=&quot;font-size: 50px;&quot;&gt;Computation graph&lt;/font&gt;" style="text;html=1;align=center;verticalAlign=middle;whiteSpace=wrap;rounded=0;" vertex="1" parent="1">
          <mxGeometry x="240" y="-190" width="1070" height="90" as="geometry" />
        </mxCell>
        <mxCell id="5_L3FHl470YcaegGqM6t-3" value="&lt;font style=&quot;font-size: 50px;&quot;&gt;Cluster graph&lt;/font&gt;" style="text;html=1;align=center;verticalAlign=middle;whiteSpace=wrap;rounded=0;" vertex="1" parent="1">
          <mxGeometry x="2120" y="-190" width="670" height="90" as="geometry" />
        </mxCell>
        <mxCell id="5_L3FHl470YcaegGqM6t-70" style="edgeStyle=orthogonalEdgeStyle;rounded=0;orthogonalLoop=1;jettySize=auto;html=1;endArrow=none;startFill=0;" edge="1" parent="1" source="5_L3FHl470YcaegGqM6t-5" target="5_L3FHl470YcaegGqM6t-69">
          <mxGeometry relative="1" as="geometry" />
        </mxCell>
        <mxCell id="5_L3FHl470YcaegGqM6t-5" value="" style="whiteSpace=wrap;html=1;aspect=fixed;fillColor=#dae8fc;strokeColor=#6c8ebf;" vertex="1" parent="1">
          <mxGeometry x="2160" y="50" width="210" height="210" as="geometry" />
        </mxCell>
        <mxCell id="5_L3FHl470YcaegGqM6t-6" value="core#1" style="rounded=0;whiteSpace=wrap;html=1;" vertex="1" parent="1">
          <mxGeometry x="2170" y="60" width="40" height="40" as="geometry" />
        </mxCell>
        <mxCell id="5_L3FHl470YcaegGqM6t-7" value="core#4" style="rounded=0;whiteSpace=wrap;html=1;" vertex="1" parent="1">
          <mxGeometry x="2320" y="60" width="40" height="40" as="geometry" />
        </mxCell>
        <mxCell id="5_L3FHl470YcaegGqM6t-8" value="core#7" style="rounded=0;whiteSpace=wrap;html=1;" vertex="1" parent="1">
          <mxGeometry x="2270" y="110" width="40" height="40" as="geometry" />
        </mxCell>
        <mxCell id="5_L3FHl470YcaegGqM6t-9" value="core#8" style="rounded=0;whiteSpace=wrap;html=1;" vertex="1" parent="1">
          <mxGeometry x="2320" y="110" width="40" height="40" as="geometry" />
        </mxCell>
        <mxCell id="5_L3FHl470YcaegGqM6t-10" value="core#6" style="rounded=0;whiteSpace=wrap;html=1;" vertex="1" parent="1">
          <mxGeometry x="2220" y="110" width="40" height="40" as="geometry" />
        </mxCell>
        <mxCell id="5_L3FHl470YcaegGqM6t-11" value="core#2" style="rounded=0;whiteSpace=wrap;html=1;" vertex="1" parent="1">
          <mxGeometry x="2220" y="60" width="40" height="40" as="geometry" />
        </mxCell>
        <mxCell id="5_L3FHl470YcaegGqM6t-12" value="core#3" style="rounded=0;whiteSpace=wrap;html=1;" vertex="1" parent="1">
          <mxGeometry x="2270" y="60" width="40" height="40" as="geometry" />
        </mxCell>
        <mxCell id="5_L3FHl470YcaegGqM6t-13" value="core#5" style="rounded=0;whiteSpace=wrap;html=1;" vertex="1" parent="1">
          <mxGeometry x="2170" y="110" width="40" height="40" as="geometry" />
        </mxCell>
        <mxCell id="5_L3FHl470YcaegGqM6t-14" value="GPU" style="rounded=0;whiteSpace=wrap;html=1;" vertex="1" parent="1">
          <mxGeometry x="2270" y="160" width="90" height="40" as="geometry" />
        </mxCell>
        <mxCell id="5_L3FHl470YcaegGqM6t-15" value="VRAM" style="ellipse;whiteSpace=wrap;html=1;" vertex="1" parent="1">
          <mxGeometry x="2270" y="210" width="90" height="40" as="geometry" />
        </mxCell>
        <mxCell id="5_L3FHl470YcaegGqM6t-16" value="RAM" style="ellipse;whiteSpace=wrap;html=1;" vertex="1" parent="1">
          <mxGeometry x="2170" y="210" width="90" height="40" as="geometry" />
        </mxCell>
        <mxCell id="5_L3FHl470YcaegGqM6t-17" value="Disk space" style="shape=note;whiteSpace=wrap;html=1;backgroundOutline=1;darkOpacity=0.05;align=left;" vertex="1" parent="1">
          <mxGeometry x="2170" y="160" width="90" height="40" as="geometry" />
        </mxCell>
        <mxCell id="5_L3FHl470YcaegGqM6t-18" value="Do we want to represent L1, L2, L3 cache?&lt;div&gt;&lt;br&gt;&lt;/div&gt;&lt;div&gt;What level of granularity?&lt;/div&gt;" style="text;html=1;align=center;verticalAlign=middle;whiteSpace=wrap;rounded=0;" vertex="1" parent="1">
          <mxGeometry x="2040" y="60" width="100" height="110" as="geometry" />
        </mxCell>
        <mxCell id="5_L3FHl470YcaegGqM6t-19" value="For each processing unit we should know their computational capability in FLOPS" style="text;html=1;align=center;verticalAlign=middle;whiteSpace=wrap;rounded=0;" vertex="1" parent="1">
          <mxGeometry x="2140" y="-60" width="120" height="130" as="geometry" />
        </mxCell>
        <mxCell id="5_L3FHl470YcaegGqM6t-21" value="core#1" style="rounded=0;whiteSpace=wrap;html=1;" vertex="1" parent="1">
          <mxGeometry x="2170" y="310" width="40" height="40" as="geometry" />
        </mxCell>
        <mxCell id="5_L3FHl470YcaegGqM6t-22" value="core#4" style="rounded=0;whiteSpace=wrap;html=1;" vertex="1" parent="1">
          <mxGeometry x="2320" y="310" width="40" height="40" as="geometry" />
        </mxCell>
        <mxCell id="5_L3FHl470YcaegGqM6t-23" value="core#7" style="rounded=0;whiteSpace=wrap;html=1;" vertex="1" parent="1">
          <mxGeometry x="2270" y="360" width="40" height="40" as="geometry" />
        </mxCell>
        <mxCell id="5_L3FHl470YcaegGqM6t-24" value="core#8" style="rounded=0;whiteSpace=wrap;html=1;" vertex="1" parent="1">
          <mxGeometry x="2320" y="360" width="40" height="40" as="geometry" />
        </mxCell>
        <mxCell id="5_L3FHl470YcaegGqM6t-25" value="core#6" style="rounded=0;whiteSpace=wrap;html=1;" vertex="1" parent="1">
          <mxGeometry x="2220" y="360" width="40" height="40" as="geometry" />
        </mxCell>
        <mxCell id="5_L3FHl470YcaegGqM6t-26" value="core#2" style="rounded=0;whiteSpace=wrap;html=1;" vertex="1" parent="1">
          <mxGeometry x="2220" y="310" width="40" height="40" as="geometry" />
        </mxCell>
        <mxCell id="5_L3FHl470YcaegGqM6t-27" value="core#3" style="rounded=0;whiteSpace=wrap;html=1;" vertex="1" parent="1">
          <mxGeometry x="2270" y="310" width="40" height="40" as="geometry" />
        </mxCell>
        <mxCell id="5_L3FHl470YcaegGqM6t-28" value="core#5" style="rounded=0;whiteSpace=wrap;html=1;" vertex="1" parent="1">
          <mxGeometry x="2170" y="360" width="40" height="40" as="geometry" />
        </mxCell>
        <mxCell id="5_L3FHl470YcaegGqM6t-31" value="RAM" style="ellipse;whiteSpace=wrap;html=1;" vertex="1" parent="1">
          <mxGeometry x="2270" y="410" width="90" height="40" as="geometry" />
        </mxCell>
        <mxCell id="5_L3FHl470YcaegGqM6t-32" value="Disk space" style="shape=note;whiteSpace=wrap;html=1;backgroundOutline=1;darkOpacity=0.05;align=left;" vertex="1" parent="1">
          <mxGeometry x="2170" y="410" width="90" height="40" as="geometry" />
        </mxCell>
        <mxCell id="5_L3FHl470YcaegGqM6t-73" style="edgeStyle=orthogonalEdgeStyle;rounded=0;orthogonalLoop=1;jettySize=auto;html=1;endArrow=none;startFill=0;" edge="1" parent="1" source="5_L3FHl470YcaegGqM6t-34" target="5_L3FHl470YcaegGqM6t-69">
          <mxGeometry relative="1" as="geometry">
            <Array as="points">
              <mxPoint x="2450" y="105" />
            </Array>
          </mxGeometry>
        </mxCell>
        <mxCell id="5_L3FHl470YcaegGqM6t-34" value="" style="rounded=0;whiteSpace=wrap;html=1;fillColor=#d5e8d4;strokeColor=#82b366;" vertex="1" parent="1">
          <mxGeometry x="2520" y="50" width="210" height="110" as="geometry" />
        </mxCell>
        <mxCell id="5_L3FHl470YcaegGqM6t-35" value="core#1" style="rounded=0;whiteSpace=wrap;html=1;" vertex="1" parent="1">
          <mxGeometry x="2530" y="60" width="40" height="40" as="geometry" />
        </mxCell>
        <mxCell id="5_L3FHl470YcaegGqM6t-36" value="core#4" style="rounded=0;whiteSpace=wrap;html=1;" vertex="1" parent="1">
          <mxGeometry x="2580" y="110" width="40" height="40" as="geometry" />
        </mxCell>
        <mxCell id="5_L3FHl470YcaegGqM6t-40" value="core#2" style="rounded=0;whiteSpace=wrap;html=1;" vertex="1" parent="1">
          <mxGeometry x="2580" y="60" width="40" height="40" as="geometry" />
        </mxCell>
        <mxCell id="5_L3FHl470YcaegGqM6t-41" value="core#3" style="rounded=0;whiteSpace=wrap;html=1;" vertex="1" parent="1">
          <mxGeometry x="2530" y="110" width="40" height="40" as="geometry" />
        </mxCell>
        <mxCell id="5_L3FHl470YcaegGqM6t-43" value="RAM" style="ellipse;whiteSpace=wrap;html=1;" vertex="1" parent="1">
          <mxGeometry x="2630" y="110" width="90" height="40" as="geometry" />
        </mxCell>
        <mxCell id="5_L3FHl470YcaegGqM6t-44" value="Disk space" style="shape=note;whiteSpace=wrap;html=1;backgroundOutline=1;darkOpacity=0.05;align=left;" vertex="1" parent="1">
          <mxGeometry x="2630" y="60" width="90" height="40" as="geometry" />
        </mxCell>
        <mxCell id="5_L3FHl470YcaegGqM6t-46" value="core#1" style="rounded=0;whiteSpace=wrap;html=1;" vertex="1" parent="1">
          <mxGeometry x="2530" y="190" width="40" height="40" as="geometry" />
        </mxCell>
        <mxCell id="5_L3FHl470YcaegGqM6t-47" value="core#4" style="rounded=0;whiteSpace=wrap;html=1;" vertex="1" parent="1">
          <mxGeometry x="2680" y="190" width="40" height="40" as="geometry" />
        </mxCell>
        <mxCell id="5_L3FHl470YcaegGqM6t-48" value="core#7" style="rounded=0;whiteSpace=wrap;html=1;" vertex="1" parent="1">
          <mxGeometry x="2630" y="240" width="40" height="40" as="geometry" />
        </mxCell>
        <mxCell id="5_L3FHl470YcaegGqM6t-49" value="core#8" style="rounded=0;whiteSpace=wrap;html=1;" vertex="1" parent="1">
          <mxGeometry x="2680" y="240" width="40" height="40" as="geometry" />
        </mxCell>
        <mxCell id="5_L3FHl470YcaegGqM6t-50" value="core#6" style="rounded=0;whiteSpace=wrap;html=1;" vertex="1" parent="1">
          <mxGeometry x="2580" y="240" width="40" height="40" as="geometry" />
        </mxCell>
        <mxCell id="5_L3FHl470YcaegGqM6t-51" value="core#2" style="rounded=0;whiteSpace=wrap;html=1;" vertex="1" parent="1">
          <mxGeometry x="2580" y="190" width="40" height="40" as="geometry" />
        </mxCell>
        <mxCell id="5_L3FHl470YcaegGqM6t-52" value="core#3" style="rounded=0;whiteSpace=wrap;html=1;" vertex="1" parent="1">
          <mxGeometry x="2630" y="190" width="40" height="40" as="geometry" />
        </mxCell>
        <mxCell id="5_L3FHl470YcaegGqM6t-53" value="core#5" style="rounded=0;whiteSpace=wrap;html=1;" vertex="1" parent="1">
          <mxGeometry x="2530" y="240" width="40" height="40" as="geometry" />
        </mxCell>
        <mxCell id="5_L3FHl470YcaegGqM6t-54" value="GPU#1" style="rounded=0;whiteSpace=wrap;html=1;" vertex="1" parent="1">
          <mxGeometry x="2630" y="390" width="90" height="40" as="geometry" />
        </mxCell>
        <mxCell id="5_L3FHl470YcaegGqM6t-55" value="VRAM#2" style="ellipse;whiteSpace=wrap;html=1;" vertex="1" parent="1">
          <mxGeometry x="2530" y="440" width="90" height="40" as="geometry" />
        </mxCell>
        <mxCell id="5_L3FHl470YcaegGqM6t-56" value="RAM" style="ellipse;whiteSpace=wrap;html=1;" vertex="1" parent="1">
          <mxGeometry x="2530" y="490" width="90" height="40" as="geometry" />
        </mxCell>
        <mxCell id="5_L3FHl470YcaegGqM6t-57" value="Disk space" style="shape=note;whiteSpace=wrap;html=1;backgroundOutline=1;darkOpacity=0.05;align=left;" vertex="1" parent="1">
          <mxGeometry x="2630" y="490" width="90" height="40" as="geometry" />
        </mxCell>
        <mxCell id="5_L3FHl470YcaegGqM6t-60" value="core#9" style="rounded=0;whiteSpace=wrap;html=1;" vertex="1" parent="1">
          <mxGeometry x="2530" y="290" width="40" height="40" as="geometry" />
        </mxCell>
        <mxCell id="5_L3FHl470YcaegGqM6t-61" value="core#12" style="rounded=0;whiteSpace=wrap;html=1;" vertex="1" parent="1">
          <mxGeometry x="2680" y="290" width="40" height="40" as="geometry" />
        </mxCell>
        <mxCell id="5_L3FHl470YcaegGqM6t-62" value="core#15" style="rounded=0;whiteSpace=wrap;html=1;" vertex="1" parent="1">
          <mxGeometry x="2630" y="340" width="40" height="40" as="geometry" />
        </mxCell>
        <mxCell id="5_L3FHl470YcaegGqM6t-63" value="core#16" style="rounded=0;whiteSpace=wrap;html=1;" vertex="1" parent="1">
          <mxGeometry x="2680" y="340" width="40" height="40" as="geometry" />
        </mxCell>
        <mxCell id="5_L3FHl470YcaegGqM6t-64" value="core#14" style="rounded=0;whiteSpace=wrap;html=1;" vertex="1" parent="1">
          <mxGeometry x="2580" y="340" width="40" height="40" as="geometry" />
        </mxCell>
        <mxCell id="5_L3FHl470YcaegGqM6t-65" value="core#10" style="rounded=0;whiteSpace=wrap;html=1;" vertex="1" parent="1">
          <mxGeometry x="2580" y="290" width="40" height="40" as="geometry" />
        </mxCell>
        <mxCell id="5_L3FHl470YcaegGqM6t-66" value="core#11" style="rounded=0;whiteSpace=wrap;html=1;" vertex="1" parent="1">
          <mxGeometry x="2630" y="290" width="40" height="40" as="geometry" />
        </mxCell>
        <mxCell id="5_L3FHl470YcaegGqM6t-67" value="core#13" style="rounded=0;whiteSpace=wrap;html=1;" vertex="1" parent="1">
          <mxGeometry x="2530" y="340" width="40" height="40" as="geometry" />
        </mxCell>
        <mxCell id="5_L3FHl470YcaegGqM6t-68" value="GPU#2" style="rounded=0;whiteSpace=wrap;html=1;" vertex="1" parent="1">
          <mxGeometry x="2630" y="440" width="90" height="40" as="geometry" />
        </mxCell>
        <mxCell id="5_L3FHl470YcaegGqM6t-69" value="" style="verticalLabelPosition=bottom;sketch=0;aspect=fixed;html=1;verticalAlign=top;strokeColor=none;align=center;outlineConnect=0;shape=mxgraph.citrix.switch;" vertex="1" parent="1">
          <mxGeometry x="2400" y="258.5" width="92" height="41.5" as="geometry" />
        </mxCell>
        <mxCell id="5_L3FHl470YcaegGqM6t-75" value="bandwidth + latency" style="text;html=1;align=center;verticalAlign=middle;whiteSpace=wrap;rounded=0;" vertex="1" parent="1">
          <mxGeometry x="2455" y="175" width="60" height="30" as="geometry" />
        </mxCell>
        <mxCell id="5_L3FHl470YcaegGqM6t-76" value="Of course, we also have their energy model" style="text;html=1;align=center;verticalAlign=middle;whiteSpace=wrap;rounded=0;" vertex="1" parent="1">
          <mxGeometry x="2270" y="-20" width="140" height="70" as="geometry" />
        </mxCell>
        <mxCell id="5_L3FHl470YcaegGqM6t-78" value="VRAM#1" style="ellipse;whiteSpace=wrap;html=1;" vertex="1" parent="1">
          <mxGeometry x="2530" y="390" width="90" height="40" as="geometry" />
        </mxCell>
        <mxCell id="5_L3FHl470YcaegGqM6t-79" value="We could also represent the intra-node communication speed" style="text;html=1;align=center;verticalAlign=middle;whiteSpace=wrap;rounded=0;" vertex="1" parent="1">
          <mxGeometry x="2045" y="175" width="90" height="85" as="geometry" />
        </mxCell>
        <mxCell id="5_L3FHl470YcaegGqM6t-81" value="&lt;font style=&quot;font-size: 50px;&quot;&gt;Global partition&lt;/font&gt;" style="text;html=1;align=center;verticalAlign=middle;whiteSpace=wrap;rounded=0;" vertex="1" parent="1">
          <mxGeometry x="3110" y="-190" width="670" height="90" as="geometry" />
        </mxCell>
        <mxCell id="5_L3FHl470YcaegGqM6t-82" value="With the computation graph and the cluster graph as inputs, we should be able to determine a close-to-optimal solution that performs the training with the minimal energy consumption. This result is called the global partition, it indicates who performs which operations.&lt;br&gt;&lt;br&gt;&lt;div&gt;Let&#39;s note that in order to reduce the energy consumption, the result could omit the use of certain machines that would had too much consumption for a low contribution in the learning.&lt;/div&gt;&lt;div&gt;Here is what it could look like:&lt;/div&gt;" style="text;html=1;align=center;verticalAlign=top;whiteSpace=wrap;rounded=0;labelPosition=center;verticalLabelPosition=middle;textDirection=ltr;" vertex="1" parent="1">
          <mxGeometry x="3260" y="-110" width="370" height="150" as="geometry" />
        </mxCell>
        <mxCell id="5_L3FHl470YcaegGqM6t-83" style="edgeStyle=orthogonalEdgeStyle;rounded=0;orthogonalLoop=1;jettySize=auto;html=1;" edge="1" parent="1" source="5_L3FHl470YcaegGqM6t-85" target="5_L3FHl470YcaegGqM6t-87">
          <mxGeometry relative="1" as="geometry" />
        </mxCell>
        <mxCell id="5_L3FHl470YcaegGqM6t-84" style="edgeStyle=orthogonalEdgeStyle;rounded=0;orthogonalLoop=1;jettySize=auto;html=1;entryX=0;entryY=0.5;entryDx=0;entryDy=0;" edge="1" parent="1" source="5_L3FHl470YcaegGqM6t-85" target="5_L3FHl470YcaegGqM6t-89">
          <mxGeometry relative="1" as="geometry" />
        </mxCell>
        <mxCell id="5_L3FHl470YcaegGqM6t-85" value="Image#n" style="whiteSpace=wrap;html=1;aspect=fixed;" vertex="1" parent="1">
          <mxGeometry x="3240" y="351" width="80" height="80" as="geometry" />
        </mxCell>
        <mxCell id="5_L3FHl470YcaegGqM6t-86" style="edgeStyle=orthogonalEdgeStyle;rounded=0;orthogonalLoop=1;jettySize=auto;html=1;entryX=0;entryY=0.5;entryDx=0;entryDy=0;" edge="1" parent="1" source="5_L3FHl470YcaegGqM6t-87" target="5_L3FHl470YcaegGqM6t-102">
          <mxGeometry relative="1" as="geometry" />
        </mxCell>
        <mxCell id="5_L3FHl470YcaegGqM6t-87" value="Cross correlation#1" style="rounded=1;whiteSpace=wrap;html=1;fillColor=#dae8fc;strokeColor=#6c8ebf;" vertex="1" parent="1">
          <mxGeometry x="3400" y="291" width="120" height="60" as="geometry" />
        </mxCell>
        <mxCell id="5_L3FHl470YcaegGqM6t-88" style="edgeStyle=orthogonalEdgeStyle;rounded=0;orthogonalLoop=1;jettySize=auto;html=1;" edge="1" parent="1" source="5_L3FHl470YcaegGqM6t-89" target="5_L3FHl470YcaegGqM6t-104">
          <mxGeometry relative="1" as="geometry" />
        </mxCell>
        <mxCell id="5_L3FHl470YcaegGqM6t-89" value="Cross correlation#2" style="rounded=1;whiteSpace=wrap;html=1;fillColor=#d5e8d4;strokeColor=#82b366;" vertex="1" parent="1">
          <mxGeometry x="3400" y="431" width="120" height="60" as="geometry" />
        </mxCell>
        <mxCell id="5_L3FHl470YcaegGqM6t-90" style="edgeStyle=orthogonalEdgeStyle;rounded=0;orthogonalLoop=1;jettySize=auto;html=1;entryX=0;entryY=0.5;entryDx=0;entryDy=0;" edge="1" parent="1" source="5_L3FHl470YcaegGqM6t-91" target="5_L3FHl470YcaegGqM6t-94">
          <mxGeometry relative="1" as="geometry" />
        </mxCell>
        <mxCell id="5_L3FHl470YcaegGqM6t-91" value="Filters" style="shape=cube;whiteSpace=wrap;html=1;boundedLbl=1;backgroundOutline=1;darkOpacity=0.05;darkOpacity2=0.1;" vertex="1" parent="1">
          <mxGeometry x="2940" y="181" width="80" height="80" as="geometry" />
        </mxCell>
        <mxCell id="5_L3FHl470YcaegGqM6t-92" style="edgeStyle=orthogonalEdgeStyle;rounded=0;orthogonalLoop=1;jettySize=auto;html=1;entryX=0;entryY=0.5;entryDx=0;entryDy=0;" edge="1" parent="1" source="5_L3FHl470YcaegGqM6t-94" target="5_L3FHl470YcaegGqM6t-96">
          <mxGeometry relative="1" as="geometry" />
        </mxCell>
        <mxCell id="5_L3FHl470YcaegGqM6t-93" style="edgeStyle=orthogonalEdgeStyle;rounded=0;orthogonalLoop=1;jettySize=auto;html=1;entryX=0;entryY=0.5;entryDx=0;entryDy=0;" edge="1" parent="1" source="5_L3FHl470YcaegGqM6t-94" target="5_L3FHl470YcaegGqM6t-98">
          <mxGeometry relative="1" as="geometry" />
        </mxCell>
        <mxCell id="5_L3FHl470YcaegGqM6t-94" value="partition" style="rounded=1;whiteSpace=wrap;html=1;" vertex="1" parent="1">
          <mxGeometry x="3070" y="191" width="120" height="60" as="geometry" />
        </mxCell>
        <mxCell id="5_L3FHl470YcaegGqM6t-95" style="edgeStyle=orthogonalEdgeStyle;rounded=0;orthogonalLoop=1;jettySize=auto;html=1;entryX=0;entryY=0.25;entryDx=0;entryDy=0;" edge="1" parent="1" source="5_L3FHl470YcaegGqM6t-96" target="5_L3FHl470YcaegGqM6t-87">
          <mxGeometry relative="1" as="geometry">
            <Array as="points">
              <mxPoint x="3370" y="171" />
              <mxPoint x="3370" y="306" />
            </Array>
          </mxGeometry>
        </mxCell>
        <mxCell id="5_L3FHl470YcaegGqM6t-142" style="edgeStyle=orthogonalEdgeStyle;rounded=0;orthogonalLoop=1;jettySize=auto;html=1;entryX=0.5;entryY=0;entryDx=0;entryDy=0;" edge="1" parent="1" source="5_L3FHl470YcaegGqM6t-96" target="5_L3FHl470YcaegGqM6t-140">
          <mxGeometry relative="1" as="geometry">
            <Array as="points">
              <mxPoint x="3370" y="171" />
              <mxPoint x="3370" y="571" />
              <mxPoint x="3320" y="571" />
            </Array>
          </mxGeometry>
        </mxCell>
        <mxCell id="5_L3FHl470YcaegGqM6t-96" value="Filters#1" style="whiteSpace=wrap;html=1;aspect=fixed;fillColor=#dae8fc;strokeColor=#6c8ebf;" vertex="1" parent="1">
          <mxGeometry x="3240" y="131" width="80" height="80" as="geometry" />
        </mxCell>
        <mxCell id="5_L3FHl470YcaegGqM6t-97" style="edgeStyle=orthogonalEdgeStyle;rounded=0;orthogonalLoop=1;jettySize=auto;html=1;entryX=0;entryY=0.25;entryDx=0;entryDy=0;" edge="1" parent="1" source="5_L3FHl470YcaegGqM6t-98" target="5_L3FHl470YcaegGqM6t-89">
          <mxGeometry relative="1" as="geometry">
            <Array as="points">
              <mxPoint x="3350" y="271" />
              <mxPoint x="3350" y="446" />
            </Array>
          </mxGeometry>
        </mxCell>
        <mxCell id="5_L3FHl470YcaegGqM6t-143" style="edgeStyle=orthogonalEdgeStyle;rounded=0;orthogonalLoop=1;jettySize=auto;html=1;entryX=0;entryY=0.5;entryDx=0;entryDy=0;" edge="1" parent="1" source="5_L3FHl470YcaegGqM6t-98" target="5_L3FHl470YcaegGqM6t-141">
          <mxGeometry relative="1" as="geometry">
            <Array as="points">
              <mxPoint x="3350" y="271" />
              <mxPoint x="3350" y="506" />
              <mxPoint x="3260" y="506" />
              <mxPoint x="3260" y="771" />
            </Array>
          </mxGeometry>
        </mxCell>
        <mxCell id="5_L3FHl470YcaegGqM6t-98" value="Filters#2" style="whiteSpace=wrap;html=1;aspect=fixed;fillColor=#d5e8d4;strokeColor=#82b366;" vertex="1" parent="1">
          <mxGeometry x="3240" y="231" width="80" height="80" as="geometry" />
        </mxCell>
        <mxCell id="5_L3FHl470YcaegGqM6t-99" value="&lt;font style=&quot;font-size: 35px;&quot;&gt;conv forward&lt;/font&gt;" style="text;html=1;align=center;verticalAlign=middle;whiteSpace=wrap;rounded=0;" vertex="1" parent="1">
          <mxGeometry x="3400" y="101" width="290" height="120" as="geometry" />
        </mxCell>
        <mxCell id="5_L3FHl470YcaegGqM6t-100" value="&lt;font style=&quot;font-size: 35px;&quot;&gt;pool forward&lt;/font&gt;" style="text;html=1;align=center;verticalAlign=middle;whiteSpace=wrap;rounded=0;" vertex="1" parent="1">
          <mxGeometry x="3700" y="101" width="290" height="120" as="geometry" />
        </mxCell>
        <mxCell id="5_L3FHl470YcaegGqM6t-101" style="edgeStyle=orthogonalEdgeStyle;rounded=0;orthogonalLoop=1;jettySize=auto;html=1;" edge="1" parent="1" source="5_L3FHl470YcaegGqM6t-102" target="5_L3FHl470YcaegGqM6t-107">
          <mxGeometry relative="1" as="geometry" />
        </mxCell>
        <mxCell id="5_L3FHl470YcaegGqM6t-102" value="relu#1" style="rounded=1;whiteSpace=wrap;html=1;fillColor=#dae8fc;strokeColor=#6c8ebf;" vertex="1" parent="1">
          <mxGeometry x="3560" y="291" width="60" height="60" as="geometry" />
        </mxCell>
        <mxCell id="5_L3FHl470YcaegGqM6t-103" style="edgeStyle=orthogonalEdgeStyle;rounded=0;orthogonalLoop=1;jettySize=auto;html=1;entryX=0;entryY=0.5;entryDx=0;entryDy=0;" edge="1" parent="1" source="5_L3FHl470YcaegGqM6t-104" target="5_L3FHl470YcaegGqM6t-110">
          <mxGeometry relative="1" as="geometry" />
        </mxCell>
        <mxCell id="5_L3FHl470YcaegGqM6t-104" value="relu#2" style="rounded=1;whiteSpace=wrap;html=1;fillColor=#d5e8d4;strokeColor=#82b366;" vertex="1" parent="1">
          <mxGeometry x="3560" y="431" width="60" height="60" as="geometry" />
        </mxCell>
        <mxCell id="5_L3FHl470YcaegGqM6t-105" style="edgeStyle=orthogonalEdgeStyle;rounded=0;orthogonalLoop=1;jettySize=auto;html=1;entryX=0;entryY=0.5;entryDx=0;entryDy=0;" edge="1" parent="1" source="5_L3FHl470YcaegGqM6t-107" target="5_L3FHl470YcaegGqM6t-111">
          <mxGeometry relative="1" as="geometry" />
        </mxCell>
        <mxCell id="5_L3FHl470YcaegGqM6t-106" style="edgeStyle=orthogonalEdgeStyle;rounded=0;orthogonalLoop=1;jettySize=auto;html=1;entryX=0;entryY=0.5;entryDx=0;entryDy=0;" edge="1" parent="1" source="5_L3FHl470YcaegGqM6t-107" target="5_L3FHl470YcaegGqM6t-112">
          <mxGeometry relative="1" as="geometry" />
        </mxCell>
        <mxCell id="5_L3FHl470YcaegGqM6t-107" value="Max pooling#1" style="rounded=1;whiteSpace=wrap;html=1;fillColor=#dae8fc;strokeColor=#6c8ebf;" vertex="1" parent="1">
          <mxGeometry x="3720" y="291" width="120" height="60" as="geometry" />
        </mxCell>
        <mxCell id="5_L3FHl470YcaegGqM6t-108" style="edgeStyle=orthogonalEdgeStyle;rounded=0;orthogonalLoop=1;jettySize=auto;html=1;entryX=0;entryY=0.5;entryDx=0;entryDy=0;" edge="1" parent="1" source="5_L3FHl470YcaegGqM6t-110" target="5_L3FHl470YcaegGqM6t-113">
          <mxGeometry relative="1" as="geometry" />
        </mxCell>
        <mxCell id="5_L3FHl470YcaegGqM6t-109" style="edgeStyle=orthogonalEdgeStyle;rounded=0;orthogonalLoop=1;jettySize=auto;html=1;entryX=0;entryY=0.5;entryDx=0;entryDy=0;" edge="1" parent="1" source="5_L3FHl470YcaegGqM6t-110" target="5_L3FHl470YcaegGqM6t-114">
          <mxGeometry relative="1" as="geometry" />
        </mxCell>
        <mxCell id="5_L3FHl470YcaegGqM6t-110" value="Max pooling#2" style="rounded=1;whiteSpace=wrap;html=1;fillColor=#d5e8d4;strokeColor=#82b366;" vertex="1" parent="1">
          <mxGeometry x="3720" y="431" width="120" height="60" as="geometry" />
        </mxCell>
        <mxCell id="5_L3FHl470YcaegGqM6t-153" style="edgeStyle=orthogonalEdgeStyle;rounded=0;orthogonalLoop=1;jettySize=auto;html=1;entryX=0;entryY=0.5;entryDx=0;entryDy=0;" edge="1" parent="1" source="5_L3FHl470YcaegGqM6t-111" target="5_L3FHl470YcaegGqM6t-152">
          <mxGeometry relative="1" as="geometry" />
        </mxCell>
        <mxCell id="5_L3FHl470YcaegGqM6t-111" value="out#1" style="whiteSpace=wrap;html=1;aspect=fixed;fillColor=#dae8fc;strokeColor=#6c8ebf;" vertex="1" parent="1">
          <mxGeometry x="3880" y="251" width="60" height="60" as="geometry" />
        </mxCell>
        <mxCell id="5_L3FHl470YcaegGqM6t-112" value="mask#1" style="whiteSpace=wrap;html=1;aspect=fixed;fillColor=#dae8fc;strokeColor=#6c8ebf;" vertex="1" parent="1">
          <mxGeometry x="3880" y="321" width="60" height="60" as="geometry" />
        </mxCell>
        <mxCell id="5_L3FHl470YcaegGqM6t-156" style="edgeStyle=orthogonalEdgeStyle;rounded=0;orthogonalLoop=1;jettySize=auto;html=1;entryX=0;entryY=0.5;entryDx=0;entryDy=0;" edge="1" parent="1" source="5_L3FHl470YcaegGqM6t-113" target="5_L3FHl470YcaegGqM6t-152">
          <mxGeometry relative="1" as="geometry" />
        </mxCell>
        <mxCell id="5_L3FHl470YcaegGqM6t-113" value="out#2" style="whiteSpace=wrap;html=1;aspect=fixed;fillColor=#d5e8d4;strokeColor=#82b366;" vertex="1" parent="1">
          <mxGeometry x="3880" y="401" width="60" height="60" as="geometry" />
        </mxCell>
        <mxCell id="5_L3FHl470YcaegGqM6t-114" value="mask#2" style="whiteSpace=wrap;html=1;aspect=fixed;fillColor=#d5e8d4;strokeColor=#82b366;" vertex="1" parent="1">
          <mxGeometry x="3880" y="471" width="60" height="60" as="geometry" />
        </mxCell>
        <mxCell id="5_L3FHl470YcaegGqM6t-115" style="edgeStyle=orthogonalEdgeStyle;rounded=0;orthogonalLoop=1;jettySize=auto;html=1;entryX=0;entryY=0.5;entryDx=0;entryDy=0;" edge="1" parent="1" source="5_L3FHl470YcaegGqM6t-116" target="5_L3FHl470YcaegGqM6t-118">
          <mxGeometry relative="1" as="geometry" />
        </mxCell>
        <mxCell id="5_L3FHl470YcaegGqM6t-116" value="dataset" style="shape=cube;whiteSpace=wrap;html=1;boundedLbl=1;backgroundOutline=1;darkOpacity=0.05;darkOpacity2=0.1;" vertex="1" parent="1">
          <mxGeometry x="2940" y="351" width="80" height="80" as="geometry" />
        </mxCell>
        <mxCell id="5_L3FHl470YcaegGqM6t-117" style="edgeStyle=orthogonalEdgeStyle;rounded=0;orthogonalLoop=1;jettySize=auto;html=1;entryX=0;entryY=0.5;entryDx=0;entryDy=0;" edge="1" parent="1" source="5_L3FHl470YcaegGqM6t-118" target="5_L3FHl470YcaegGqM6t-85">
          <mxGeometry relative="1" as="geometry" />
        </mxCell>
        <mxCell id="5_L3FHl470YcaegGqM6t-148" style="edgeStyle=orthogonalEdgeStyle;rounded=0;orthogonalLoop=1;jettySize=auto;html=1;" edge="1" parent="1" source="5_L3FHl470YcaegGqM6t-118" target="5_L3FHl470YcaegGqM6t-147">
          <mxGeometry relative="1" as="geometry">
            <Array as="points">
              <mxPoint x="3200" y="391" />
            </Array>
          </mxGeometry>
        </mxCell>
        <mxCell id="5_L3FHl470YcaegGqM6t-118" value="partition" style="rounded=1;whiteSpace=wrap;html=1;" vertex="1" parent="1">
          <mxGeometry x="3070" y="361" width="120" height="60" as="geometry" />
        </mxCell>
        <mxCell id="5_L3FHl470YcaegGqM6t-120" value="Who owns the dataset?" style="text;html=1;align=center;verticalAlign=middle;whiteSpace=wrap;rounded=0;" vertex="1" parent="1">
          <mxGeometry x="3075" y="321" width="110" height="30" as="geometry" />
        </mxCell>
        <mxCell id="5_L3FHl470YcaegGqM6t-121" value="We could directly instanciate the filters on the corresponding machine" style="text;html=1;align=center;verticalAlign=middle;whiteSpace=wrap;rounded=0;" vertex="1" parent="1">
          <mxGeometry x="3060" y="113.5" width="130" height="70" as="geometry" />
        </mxCell>
        <mxCell id="5_L3FHl470YcaegGqM6t-122" style="edgeStyle=orthogonalEdgeStyle;rounded=0;orthogonalLoop=1;jettySize=auto;html=1;entryX=0;entryY=0.5;entryDx=0;entryDy=0;" edge="1" parent="1" source="5_L3FHl470YcaegGqM6t-123" target="5_L3FHl470YcaegGqM6t-127">
          <mxGeometry relative="1" as="geometry" />
        </mxCell>
        <mxCell id="5_L3FHl470YcaegGqM6t-123" value="Cross correlation#1" style="rounded=1;whiteSpace=wrap;html=1;fillColor=#ffe6cc;strokeColor=#d79b00;" vertex="1" parent="1">
          <mxGeometry x="3400" y="601" width="120" height="60" as="geometry" />
        </mxCell>
        <mxCell id="5_L3FHl470YcaegGqM6t-124" style="edgeStyle=orthogonalEdgeStyle;rounded=0;orthogonalLoop=1;jettySize=auto;html=1;" edge="1" parent="1" source="5_L3FHl470YcaegGqM6t-125" target="5_L3FHl470YcaegGqM6t-129">
          <mxGeometry relative="1" as="geometry" />
        </mxCell>
        <mxCell id="5_L3FHl470YcaegGqM6t-125" value="Cross correlation#2" style="rounded=1;whiteSpace=wrap;html=1;fillColor=#fff2cc;strokeColor=#d6b656;" vertex="1" parent="1">
          <mxGeometry x="3400" y="741" width="120" height="60" as="geometry" />
        </mxCell>
        <mxCell id="5_L3FHl470YcaegGqM6t-126" style="edgeStyle=orthogonalEdgeStyle;rounded=0;orthogonalLoop=1;jettySize=auto;html=1;" edge="1" parent="1" source="5_L3FHl470YcaegGqM6t-127" target="5_L3FHl470YcaegGqM6t-132">
          <mxGeometry relative="1" as="geometry" />
        </mxCell>
        <mxCell id="5_L3FHl470YcaegGqM6t-127" value="relu#1" style="rounded=1;whiteSpace=wrap;html=1;fillColor=#ffe6cc;strokeColor=#d79b00;" vertex="1" parent="1">
          <mxGeometry x="3560" y="601" width="60" height="60" as="geometry" />
        </mxCell>
        <mxCell id="5_L3FHl470YcaegGqM6t-128" style="edgeStyle=orthogonalEdgeStyle;rounded=0;orthogonalLoop=1;jettySize=auto;html=1;entryX=0;entryY=0.5;entryDx=0;entryDy=0;" edge="1" parent="1" source="5_L3FHl470YcaegGqM6t-129" target="5_L3FHl470YcaegGqM6t-135">
          <mxGeometry relative="1" as="geometry" />
        </mxCell>
        <mxCell id="5_L3FHl470YcaegGqM6t-129" value="relu#2" style="rounded=1;whiteSpace=wrap;html=1;fillColor=#fff2cc;strokeColor=#d6b656;" vertex="1" parent="1">
          <mxGeometry x="3560" y="741" width="60" height="60" as="geometry" />
        </mxCell>
        <mxCell id="5_L3FHl470YcaegGqM6t-130" style="edgeStyle=orthogonalEdgeStyle;rounded=0;orthogonalLoop=1;jettySize=auto;html=1;entryX=0;entryY=0.5;entryDx=0;entryDy=0;" edge="1" parent="1" source="5_L3FHl470YcaegGqM6t-132" target="5_L3FHl470YcaegGqM6t-136">
          <mxGeometry relative="1" as="geometry" />
        </mxCell>
        <mxCell id="5_L3FHl470YcaegGqM6t-131" style="edgeStyle=orthogonalEdgeStyle;rounded=0;orthogonalLoop=1;jettySize=auto;html=1;entryX=0;entryY=0.5;entryDx=0;entryDy=0;" edge="1" parent="1" source="5_L3FHl470YcaegGqM6t-132" target="5_L3FHl470YcaegGqM6t-137">
          <mxGeometry relative="1" as="geometry" />
        </mxCell>
        <mxCell id="5_L3FHl470YcaegGqM6t-132" value="Max pooling#1" style="rounded=1;whiteSpace=wrap;html=1;fillColor=#ffe6cc;strokeColor=#d79b00;" vertex="1" parent="1">
          <mxGeometry x="3720" y="601" width="120" height="60" as="geometry" />
        </mxCell>
        <mxCell id="5_L3FHl470YcaegGqM6t-133" style="edgeStyle=orthogonalEdgeStyle;rounded=0;orthogonalLoop=1;jettySize=auto;html=1;entryX=0;entryY=0.5;entryDx=0;entryDy=0;" edge="1" parent="1" source="5_L3FHl470YcaegGqM6t-135" target="5_L3FHl470YcaegGqM6t-138">
          <mxGeometry relative="1" as="geometry" />
        </mxCell>
        <mxCell id="5_L3FHl470YcaegGqM6t-134" style="edgeStyle=orthogonalEdgeStyle;rounded=0;orthogonalLoop=1;jettySize=auto;html=1;entryX=0;entryY=0.5;entryDx=0;entryDy=0;" edge="1" parent="1" source="5_L3FHl470YcaegGqM6t-135" target="5_L3FHl470YcaegGqM6t-139">
          <mxGeometry relative="1" as="geometry" />
        </mxCell>
        <mxCell id="5_L3FHl470YcaegGqM6t-135" value="Max pooling#2" style="rounded=1;whiteSpace=wrap;html=1;fillColor=#fff2cc;strokeColor=#d6b656;" vertex="1" parent="1">
          <mxGeometry x="3720" y="741" width="120" height="60" as="geometry" />
        </mxCell>
        <mxCell id="5_L3FHl470YcaegGqM6t-155" style="edgeStyle=orthogonalEdgeStyle;rounded=0;orthogonalLoop=1;jettySize=auto;html=1;entryX=0;entryY=0.5;entryDx=0;entryDy=0;" edge="1" parent="1" source="5_L3FHl470YcaegGqM6t-136" target="5_L3FHl470YcaegGqM6t-152">
          <mxGeometry relative="1" as="geometry" />
        </mxCell>
        <mxCell id="5_L3FHl470YcaegGqM6t-136" value="out#1" style="whiteSpace=wrap;html=1;aspect=fixed;fillColor=#ffe6cc;strokeColor=#d79b00;" vertex="1" parent="1">
          <mxGeometry x="3880" y="561" width="60" height="60" as="geometry" />
        </mxCell>
        <mxCell id="5_L3FHl470YcaegGqM6t-137" value="mask#1" style="whiteSpace=wrap;html=1;aspect=fixed;fillColor=#ffe6cc;strokeColor=#d79b00;" vertex="1" parent="1">
          <mxGeometry x="3880" y="631" width="60" height="60" as="geometry" />
        </mxCell>
        <mxCell id="5_L3FHl470YcaegGqM6t-154" style="edgeStyle=orthogonalEdgeStyle;rounded=0;orthogonalLoop=1;jettySize=auto;html=1;entryX=0;entryY=0.5;entryDx=0;entryDy=0;" edge="1" parent="1" source="5_L3FHl470YcaegGqM6t-138" target="5_L3FHl470YcaegGqM6t-152">
          <mxGeometry relative="1" as="geometry" />
        </mxCell>
        <mxCell id="5_L3FHl470YcaegGqM6t-138" value="out#2" style="whiteSpace=wrap;html=1;aspect=fixed;fillColor=#fff2cc;strokeColor=#d6b656;" vertex="1" parent="1">
          <mxGeometry x="3880" y="711" width="60" height="60" as="geometry" />
        </mxCell>
        <mxCell id="5_L3FHl470YcaegGqM6t-139" value="mask#2" style="whiteSpace=wrap;html=1;aspect=fixed;fillColor=#fff2cc;strokeColor=#d6b656;" vertex="1" parent="1">
          <mxGeometry x="3880" y="781" width="60" height="60" as="geometry" />
        </mxCell>
        <mxCell id="5_L3FHl470YcaegGqM6t-144" style="edgeStyle=orthogonalEdgeStyle;rounded=0;orthogonalLoop=1;jettySize=auto;html=1;entryX=0;entryY=0.5;entryDx=0;entryDy=0;" edge="1" parent="1" source="5_L3FHl470YcaegGqM6t-140" target="5_L3FHl470YcaegGqM6t-123">
          <mxGeometry relative="1" as="geometry" />
        </mxCell>
        <mxCell id="5_L3FHl470YcaegGqM6t-140" value="Copy of Filters#1" style="whiteSpace=wrap;html=1;aspect=fixed;fillColor=#ffe6cc;strokeColor=#d79b00;" vertex="1" parent="1">
          <mxGeometry x="3280" y="591" width="80" height="80" as="geometry" />
        </mxCell>
        <mxCell id="5_L3FHl470YcaegGqM6t-145" style="edgeStyle=orthogonalEdgeStyle;rounded=0;orthogonalLoop=1;jettySize=auto;html=1;entryX=0;entryY=0.5;entryDx=0;entryDy=0;" edge="1" parent="1" source="5_L3FHl470YcaegGqM6t-141" target="5_L3FHl470YcaegGqM6t-125">
          <mxGeometry relative="1" as="geometry" />
        </mxCell>
        <mxCell id="5_L3FHl470YcaegGqM6t-141" value="Copy of Filters#2" style="whiteSpace=wrap;html=1;aspect=fixed;fillColor=#fff2cc;strokeColor=#d6b656;" vertex="1" parent="1">
          <mxGeometry x="3280" y="731" width="80" height="80" as="geometry" />
        </mxCell>
        <mxCell id="5_L3FHl470YcaegGqM6t-149" style="edgeStyle=orthogonalEdgeStyle;rounded=0;orthogonalLoop=1;jettySize=auto;html=1;entryX=0;entryY=0.5;entryDx=0;entryDy=0;" edge="1" parent="1" source="5_L3FHl470YcaegGqM6t-147" target="5_L3FHl470YcaegGqM6t-123">
          <mxGeometry relative="1" as="geometry">
            <Array as="points">
              <mxPoint x="3370" y="701" />
              <mxPoint x="3370" y="631" />
            </Array>
          </mxGeometry>
        </mxCell>
        <mxCell id="5_L3FHl470YcaegGqM6t-150" style="edgeStyle=orthogonalEdgeStyle;rounded=0;orthogonalLoop=1;jettySize=auto;html=1;" edge="1" parent="1" source="5_L3FHl470YcaegGqM6t-147" target="5_L3FHl470YcaegGqM6t-125">
          <mxGeometry relative="1" as="geometry">
            <Array as="points">
              <mxPoint x="3370" y="701" />
              <mxPoint x="3370" y="771" />
            </Array>
          </mxGeometry>
        </mxCell>
        <mxCell id="5_L3FHl470YcaegGqM6t-147" value="Image#n+1" style="whiteSpace=wrap;html=1;aspect=fixed;" vertex="1" parent="1">
          <mxGeometry x="3150" y="661" width="80" height="80" as="geometry" />
        </mxCell>
        <mxCell id="5_L3FHl470YcaegGqM6t-151" value="Here of course we won&#39;t transfer image by image, we can split the dataset from the start" style="text;html=1;align=center;verticalAlign=middle;whiteSpace=wrap;rounded=0;" vertex="1" parent="1">
          <mxGeometry x="3095" y="496" width="95" height="130" as="geometry" />
        </mxCell>
        <mxCell id="5_L3FHl470YcaegGqM6t-152" value="unpartition" style="rounded=1;whiteSpace=wrap;html=1;fillColor=#fff2cc;strokeColor=#d6b656;" vertex="1" parent="1">
          <mxGeometry x="4040" y="521" width="120" height="60" as="geometry" />
        </mxCell>
        <mxCell id="5_L3FHl470YcaegGqM6t-157" value="gather collective operation" style="text;html=1;align=center;verticalAlign=middle;whiteSpace=wrap;rounded=0;" vertex="1" parent="1">
          <mxGeometry x="4000" y="351" width="60" height="50" as="geometry" />
        </mxCell>
        <mxCell id="5_L3FHl470YcaegGqM6t-158" value="" style="endArrow=none;dashed=1;html=1;dashPattern=1 3;strokeWidth=2;rounded=0;" edge="1" parent="1">
          <mxGeometry width="50" height="50" relative="1" as="geometry">
            <mxPoint x="3380" y="116" as="sourcePoint" />
            <mxPoint x="3380" y="841" as="targetPoint" />
          </mxGeometry>
        </mxCell>
        <mxCell id="5_L3FHl470YcaegGqM6t-159" value="" style="endArrow=none;dashed=1;html=1;dashPattern=1 3;strokeWidth=2;rounded=0;" edge="1" parent="1">
          <mxGeometry width="50" height="50" relative="1" as="geometry">
            <mxPoint x="3690" y="113.5" as="sourcePoint" />
            <mxPoint x="3690" y="841" as="targetPoint" />
          </mxGeometry>
        </mxCell>
        <mxCell id="5_L3FHl470YcaegGqM6t-160" value="Channel parallelism between blue and green" style="text;html=1;align=center;verticalAlign=middle;whiteSpace=wrap;rounded=0;" vertex="1" parent="1">
          <mxGeometry x="4200" y="361" width="140" height="55" as="geometry" />
        </mxCell>
        <mxCell id="5_L3FHl470YcaegGqM6t-161" value="Channel parallelism between red and yellow" style="text;html=1;align=center;verticalAlign=middle;whiteSpace=wrap;rounded=0;" vertex="1" parent="1">
          <mxGeometry x="4200" y="686" width="140" height="55" as="geometry" />
        </mxCell>
        <mxCell id="5_L3FHl470YcaegGqM6t-162" value="" style="shape=curlyBracket;whiteSpace=wrap;html=1;rounded=1;flipH=1;labelPosition=right;verticalLabelPosition=middle;align=left;verticalAlign=middle;" vertex="1" parent="1">
          <mxGeometry x="4160" y="331" width="20" height="120" as="geometry" />
        </mxCell>
        <mxCell id="5_L3FHl470YcaegGqM6t-163" value="" style="shape=curlyBracket;whiteSpace=wrap;html=1;rounded=1;flipH=1;labelPosition=right;verticalLabelPosition=middle;align=left;verticalAlign=middle;" vertex="1" parent="1">
          <mxGeometry x="4160" y="651" width="20" height="120" as="geometry" />
        </mxCell>
        <mxCell id="5_L3FHl470YcaegGqM6t-164" value="" style="shape=curlyBracket;whiteSpace=wrap;html=1;rounded=1;flipH=1;labelPosition=right;verticalLabelPosition=middle;align=left;verticalAlign=middle;" vertex="1" parent="1">
          <mxGeometry x="4370" y="391" width="20" height="330" as="geometry" />
        </mxCell>
        <mxCell id="5_L3FHl470YcaegGqM6t-165" value="Data parallelism between (blue+green) and (red+yellow)" style="text;html=1;align=center;verticalAlign=middle;whiteSpace=wrap;rounded=0;" vertex="1" parent="1">
          <mxGeometry x="4390" y="526" width="200" height="55" as="geometry" />
        </mxCell>
      </root>
    </mxGraphModel>
  </diagram>
</mxfile>
